<svg width="386" height="386" viewBox="0 0 386 386" fill="none" xmlns="http://www.w3.org/2000/svg">
<path d="M192.528 385.055C298.858 385.055 385.055 298.858 385.055 192.528C385.055 86.1976 298.858 0 192.528 0C86.1976 0 0 86.1976 0 192.528C0 298.858 86.1976 385.055 192.528 385.055Z" fill="#C5DFDD"/>
<path d="M192.454 375.865C293.456 375.865 375.335 293.987 375.335 192.985C375.335 91.9828 293.456 10.1045 192.454 10.1045C91.4524 10.1045 9.5741 91.9828 9.5741 192.985C9.5741 293.987 91.4524 375.865 192.454 375.865Z" fill="#E7EEF0"/>
<path d="M185.173 361.769C281.3 361.769 359.227 283.843 359.227 187.716C359.227 91.5884 281.3 13.6619 185.173 13.6619C89.0456 13.6619 11.1191 91.5884 11.1191 187.716C11.1191 283.843 89.0456 361.769 185.173 361.769Z" fill="white"/>
<path opacity="0.59" d="M221.647 183.628C221.586 181.019 222.165 178.435 223.333 176.102C224.5 173.768 226.221 171.756 228.344 170.24C230.142 169.139 232.148 168.423 234.236 168.136C236.325 167.849 238.45 167.997 240.478 168.571" stroke="white" stroke-width="0.216" stroke-miterlimit="10"/>
<path d="M204.958 113.053C206.038 113.053 206.914 112.177 206.914 111.097C206.914 110.017 206.038 109.142 204.958 109.142C203.878 109.142 203.003 110.017 203.003 111.097C203.003 112.177 203.878 113.053 204.958 113.053Z" fill="#25262F"/>
<path d="M171.404 176.076C172.714 174.328 174.245 172.757 175.959 171.404" stroke="#25262F" stroke-width="0.862" stroke-miterlimit="10"/>
<path d="M201.565 142.218C203.665 142.019 205.784 142.147 207.845 142.599" stroke="#51A380" stroke-width="0.862" stroke-miterlimit="10"/>
<path d="M183.988 226.729H193.612" stroke="#51A380" stroke-width="0.862" stroke-miterlimit="10"/>
<path d="M262.669 151.359C263.445 151.549 264.141 151.979 264.658 152.588C265.175 153.196 265.487 153.953 265.549 154.749" stroke="#51A380" stroke-width="0.862" stroke-miterlimit="10"/>
<path d="M155.493 190.743C155.398 195.406 155.949 200.06 157.132 204.571" stroke="#51A380" stroke-width="0.862" stroke-miterlimit="10"/>
<path d="M84.3774 135.922L84.8813 131.33" stroke="#51A380" stroke-width="0.862" stroke-miterlimit="10"/>
<path d="M151.345 155.173V153.081" stroke="#F91841" stroke-width="0.862" stroke-miterlimit="10"/>
<path d="M250.963 132.521L253.062 133.339" stroke="#F91841" stroke-width="0.862" stroke-miterlimit="10"/>
<path d="M181.102 193.265C180.929 193.978 180.909 194.72 181.042 195.441C181.175 196.163 181.458 196.848 181.873 197.453" stroke="#F91841" stroke-width="0.862" stroke-miterlimit="10"/>
<path d="M277.305 197.437L276.468 200.774" stroke="#F91841" stroke-width="0.862" stroke-miterlimit="10"/>
<path d="M187.022 211.365C187.028 216.312 185.815 221.183 183.49 225.549C181.164 229.914 177.798 233.639 173.69 236.393L173.643 236.44C167.705 240.443 160.537 242.205 153.42 241.41C146.303 240.615 139.7 237.316 134.791 232.102C129.882 226.887 126.986 220.098 126.622 212.946C126.258 205.793 128.448 198.745 132.801 193.058C132.801 193.012 132.801 193.012 132.848 193.012C136.68 187.99 141.991 184.297 148.033 182.453C154.075 180.609 160.543 180.708 166.526 182.735C172.508 184.762 177.705 188.615 181.382 193.751C185.059 198.888 187.031 205.049 187.022 211.365Z" fill="#61901A"/>
<path d="M179.897 218.056C179.906 224.684 177.717 231.128 173.673 236.38L173.627 236.427C167.688 240.43 160.52 242.191 153.403 241.396C146.286 240.602 139.683 237.303 134.774 232.088C129.865 226.874 126.97 220.084 126.605 212.932C126.241 205.78 128.431 198.731 132.785 193.045C132.785 192.998 132.784 192.998 132.831 192.998C137.377 189.946 142.666 188.186 148.134 187.907C153.602 187.628 159.043 188.841 163.875 191.414C168.708 193.988 172.75 197.827 175.569 202.52C178.389 207.213 179.88 212.584 179.884 218.06L179.897 218.056Z" fill="#71B71E"/>
<path d="M135.431 212.78C136.119 215.809 137.196 218.737 138.634 221.49C140.087 224.257 142.225 226.604 144.845 228.308C146.876 229.467 149.058 230.338 151.328 230.897" stroke="#9FD327" stroke-width="1.412" stroke-miterlimit="10"/>
<path d="M195.381 201.781C190.443 202.05 185.516 201.099 181.034 199.01C176.552 196.921 172.654 193.759 169.685 189.804L169.639 189.758C165.325 184.041 163.183 176.977 163.598 169.827C164.012 162.677 166.955 155.908 171.901 150.728C176.847 145.548 183.473 142.295 190.596 141.55C197.719 140.806 204.875 142.618 210.785 146.663C210.831 146.663 210.831 146.663 210.835 146.706C216.049 150.268 220.015 155.375 222.174 161.31C224.333 167.244 224.576 173.705 222.869 179.785C221.163 185.865 217.592 191.256 212.66 195.199C207.728 199.143 201.684 201.44 195.377 201.768L195.381 201.781Z" fill="#61901A"/>
<path d="M188.32 195.037C181.702 195.398 175.151 193.558 169.689 189.804L169.642 189.758C165.328 184.041 163.187 176.977 163.601 169.827C164.016 162.677 166.959 155.907 171.904 150.727C176.85 145.548 183.476 142.295 190.599 141.55C197.722 140.806 204.878 142.618 210.788 146.663C210.835 146.663 210.835 146.663 210.838 146.706C214.13 151.083 216.17 156.272 216.741 161.718C217.312 167.164 216.391 172.663 214.078 177.627C211.766 182.591 208.147 186.833 203.61 189.899C199.073 192.966 193.788 194.742 188.32 195.037Z" fill="#71B71E"/>
<path d="M191.219 150.35C188.226 151.2 185.356 152.434 182.68 154.021C179.994 155.619 177.764 157.879 176.203 160.585C175.153 162.674 174.399 164.899 173.964 167.196" stroke="#9FD327" stroke-width="1.412" stroke-miterlimit="10"/>
<path d="M214.385 252.021C209.448 252.289 204.52 251.336 200.038 249.247C195.557 247.157 191.659 243.995 188.69 240.041L188.643 239.997C184.332 234.28 182.194 227.217 182.609 220.069C183.025 212.92 185.967 206.152 190.912 200.973C195.857 195.794 202.481 192.541 209.602 191.795C216.724 191.049 223.878 192.858 229.789 196.899C229.836 196.899 229.836 196.899 229.839 196.946C235.054 200.508 239.019 205.615 241.178 211.549C243.337 217.483 243.581 223.945 241.874 230.025C240.167 236.104 236.597 241.496 231.665 245.439C226.733 249.383 220.688 251.68 214.382 252.007L214.385 252.021Z" fill="#61901A"/>
<path d="M207.338 245.273C200.72 245.638 194.168 243.797 188.707 240.041L188.66 239.998C184.349 234.28 182.21 227.217 182.626 220.069C183.042 212.92 185.984 206.152 190.929 200.973C195.873 195.794 202.498 192.541 209.619 191.795C216.74 191.049 223.895 192.858 229.806 196.9C229.853 196.9 229.853 196.9 229.856 196.946C233.148 201.322 235.188 206.511 235.759 211.957C236.33 217.404 235.41 222.903 233.097 227.866C230.784 232.83 227.166 237.072 222.628 240.138C218.091 243.204 212.806 244.979 207.338 245.273Z" fill="#71B71E"/>
<path d="M210.238 200.587C207.245 201.439 204.375 202.673 201.698 204.258C199.013 205.857 196.783 208.118 195.221 210.825C194.171 212.914 193.418 215.139 192.982 217.436" stroke="#9FD327" stroke-width="1.412" stroke-miterlimit="10"/>
<path d="M277.345 173.416C277.352 178.362 276.139 183.234 273.814 187.6C271.488 191.965 268.122 195.69 264.014 198.444L263.967 198.491C258.029 202.494 250.861 204.255 243.744 203.461C236.627 202.666 230.024 199.367 225.115 194.152C220.206 188.938 217.31 182.149 216.946 174.996C216.581 167.844 218.772 160.795 223.125 155.109C223.125 155.062 223.125 155.062 223.172 155.062C227.005 150.039 232.317 146.346 238.361 144.502C244.404 142.659 250.874 142.759 256.857 144.788C262.841 146.817 268.037 150.673 271.713 155.812C275.388 160.951 277.359 167.114 277.345 173.433V173.416Z" fill="#61901A"/>
<path d="M270.231 180.11C270.242 186.738 268.056 193.182 264.014 198.434L263.967 198.481C258.029 202.484 250.861 204.245 243.744 203.45C236.627 202.656 230.024 199.356 225.115 194.142C220.206 188.928 217.31 182.138 216.946 174.986C216.581 167.834 218.772 160.785 223.125 155.099C223.125 155.052 223.125 155.052 223.172 155.052C227.717 152 233.006 150.24 238.474 149.961C243.942 149.682 249.383 150.894 254.216 153.468C259.048 156.042 263.09 159.881 265.91 164.574C268.729 169.267 270.221 174.638 270.224 180.113L270.231 180.11Z" fill="#71B71E"/>
<path d="M225.765 174.831C226.456 177.865 227.538 180.797 228.982 183.554C230.434 186.32 232.572 188.668 235.192 190.371C237.222 191.532 239.405 192.403 241.676 192.961" stroke="#9FD327" stroke-width="1.412" stroke-miterlimit="10"/>
<path d="M285.715 163.836C280.777 164.105 275.849 163.152 271.367 161.063C266.885 158.973 262.988 155.811 260.019 151.856L259.969 151.812C256.357 147.031 254.264 141.275 253.963 135.291C253.65 129.664 254.918 124.063 257.625 119.12C260.332 114.178 264.369 110.092 269.278 107.326C274.188 104.56 279.774 103.224 285.403 103.469C291.033 103.715 296.482 105.532 301.132 108.714C301.178 108.714 301.178 108.714 301.182 108.758C306.394 112.321 310.358 117.428 312.516 123.362C314.673 129.295 314.916 135.756 313.21 141.835C311.503 147.913 307.933 153.304 303.003 157.248C298.073 161.191 292.03 163.49 285.725 163.819L285.715 163.836Z" fill="#61901A"/>
<path d="M278.654 157.085C272.037 157.45 265.485 155.609 260.026 151.852L259.976 151.809C256.364 147.028 254.271 141.272 253.969 135.287C253.656 129.661 254.925 124.059 257.632 119.117C260.339 114.175 264.376 110.089 269.285 107.323C274.194 104.557 279.78 103.221 285.41 103.466C291.04 103.711 296.488 105.528 301.139 108.711C301.185 108.711 301.185 108.711 301.189 108.754C304.481 113.132 306.521 118.322 307.091 123.77C307.661 129.218 306.74 134.718 304.425 139.682C302.11 144.647 298.489 148.888 293.95 151.954C289.411 155.019 284.123 156.793 278.654 157.085Z" fill="#71B71E"/>
<path d="M281.553 112.402C278.561 113.253 275.691 114.487 273.014 116.072C270.328 117.67 268.097 119.932 266.537 122.64C265.487 124.728 264.733 126.953 264.298 129.25" stroke="#9FD327" stroke-width="1.412" stroke-miterlimit="10"/>
<path d="M304.732 214.071C299.795 214.342 294.867 213.39 290.385 211.301C285.903 209.212 282.005 206.05 279.037 202.095L278.987 202.048C275.375 197.268 273.283 191.513 272.98 185.53C272.666 179.903 273.934 174.3 276.641 169.357C279.347 164.414 283.384 160.328 288.294 157.561C293.204 154.795 298.79 153.459 304.421 153.705C310.051 153.951 315.5 155.769 320.15 158.953C320.196 158.953 320.196 158.953 320.2 158.997C325.414 162.558 329.38 167.666 331.539 173.6C333.698 179.534 333.941 185.996 332.234 192.075C330.528 198.155 326.957 203.546 322.025 207.49C317.093 211.433 311.049 213.731 304.742 214.058L304.732 214.071Z" fill="#61901A"/>
<path d="M297.671 207.327C291.055 207.689 284.504 205.849 279.044 202.095L278.994 202.048C275.382 197.268 273.289 191.513 272.987 185.53C272.673 179.903 273.941 174.301 276.647 169.357C279.354 164.414 283.391 160.328 288.301 157.562C293.211 154.795 298.797 153.459 304.427 153.705C310.058 153.951 315.506 155.769 320.156 158.953C320.203 158.953 320.203 158.954 320.206 158.997C323.498 163.373 325.538 168.562 326.109 174.009C326.68 179.455 325.76 184.954 323.447 189.918C321.134 194.882 317.516 199.124 312.979 202.19C308.441 205.257 303.156 207.032 297.688 207.327H297.671Z" fill="#71B71E"/>
<path d="M300.571 162.641C297.578 163.491 294.708 164.725 292.032 166.312C289.346 167.909 287.116 170.169 285.555 172.876C284.505 174.965 283.751 177.189 283.315 179.486" stroke="#9FD327" stroke-width="1.412" stroke-miterlimit="10"/>
<path d="M262.048 266.704C262.055 271.65 260.842 276.522 258.517 280.887C256.191 285.253 252.825 288.978 248.717 291.732L248.67 291.778C242.732 295.781 235.564 297.543 228.447 296.748C221.329 295.954 214.727 292.654 209.818 287.44C204.909 282.226 202.013 275.436 201.649 268.284C201.284 261.132 203.474 254.083 207.828 248.397C207.828 248.35 207.828 248.35 207.875 248.35C211.707 243.327 217.02 239.633 223.063 237.79C229.107 235.947 235.577 236.047 241.56 238.076C247.544 240.105 252.74 243.961 256.416 249.1C260.091 254.239 262.062 260.402 262.048 266.721V266.704Z" fill="#61901A"/>
<path d="M254.934 273.395C254.945 280.022 252.759 286.466 248.717 291.718L248.67 291.765C242.732 295.768 235.564 297.53 228.447 296.735C221.329 295.94 214.727 292.641 209.818 287.427C204.909 282.213 202.013 275.423 201.649 268.271C201.284 261.119 203.474 254.07 207.828 248.383C207.828 248.337 207.828 248.337 207.875 248.337C212.42 245.284 217.709 243.525 223.177 243.246C228.645 242.967 234.086 244.179 238.919 246.753C243.751 249.327 247.793 253.165 250.613 257.858C253.432 262.552 254.924 267.923 254.927 273.398L254.934 273.395Z" fill="#71B71E"/>
<path d="M210.468 268.119C211.159 271.153 212.24 274.085 213.684 276.842C215.137 279.609 217.275 281.956 219.895 283.66C221.925 284.82 224.107 285.692 226.379 286.249" stroke="#9FD327" stroke-width="1.412" stroke-miterlimit="10"/>
<path d="M270.418 257.123C265.48 257.392 260.552 256.44 256.07 254.35C251.588 252.26 247.691 249.098 244.722 245.143L244.672 245.1C241.054 240.321 238.955 234.564 238.649 228.578C238.336 222.952 239.605 217.35 242.311 212.408C245.018 207.465 249.055 203.38 253.965 200.613C258.874 197.847 264.46 196.511 270.09 196.757C275.719 197.002 281.168 198.819 285.818 202.002C285.865 202.002 285.865 202.002 285.868 202.045C291.087 205.605 295.058 210.714 297.22 216.65C299.382 222.587 299.626 229.052 297.919 235.135C296.212 241.218 292.639 246.612 287.704 250.557C282.769 254.501 276.721 256.798 270.411 257.123H270.418Z" fill="#61901A"/>
<path d="M263.357 250.375C256.74 250.74 250.188 248.9 244.729 245.143L244.679 245.1C241.061 240.321 238.962 234.564 238.656 228.578C238.343 222.952 239.611 217.35 242.318 212.408C245.025 207.465 249.062 203.38 253.971 200.613C258.881 197.847 264.467 196.511 270.097 196.757C275.726 197.002 281.175 198.819 285.825 202.002C285.872 202.002 285.872 202.002 285.875 202.045C289.167 206.422 291.207 211.61 291.778 217.057C292.348 222.503 291.428 228.002 289.115 232.966C286.803 237.93 283.184 242.172 278.647 245.238C274.11 248.305 268.825 250.08 263.357 250.375Z" fill="#71B71E"/>
<path d="M266.256 205.689C263.264 206.54 260.393 207.774 257.717 209.36C255.031 210.958 252.801 213.22 251.239 215.927C250.189 218.016 249.436 220.241 249 222.538" stroke="#9FD327" stroke-width="1.412" stroke-miterlimit="10"/>
<path d="M289.436 307.359C284.498 307.629 279.57 306.678 275.088 304.589C270.606 302.5 266.708 299.337 263.74 295.382L263.69 295.336C260.078 290.556 257.986 284.801 257.684 278.817C257.369 273.19 258.637 267.588 261.344 262.645C264.05 257.702 268.087 253.615 272.997 250.849C277.907 248.083 283.494 246.747 289.124 246.993C294.754 247.239 300.203 249.057 304.853 252.241C304.899 252.241 304.899 252.241 304.903 252.284C310.117 255.846 314.083 260.953 316.242 266.888C318.401 272.822 318.644 279.283 316.937 285.363C315.231 291.443 311.66 296.834 306.728 300.777C301.796 304.721 295.752 307.018 289.446 307.346L289.436 307.359Z" fill="#61901A"/>
<path d="M282.375 300.615C275.758 300.976 269.208 299.136 263.747 295.382L263.697 295.336C260.085 290.556 257.992 284.801 257.69 278.817C257.376 273.19 258.644 267.588 261.35 262.645C264.057 257.702 268.094 253.615 273.004 250.849C277.914 248.083 283.5 246.747 289.131 246.993C294.761 247.239 300.21 249.057 304.86 252.241C304.906 252.241 304.906 252.241 304.91 252.284C308.201 256.661 310.242 261.85 310.812 267.296C311.383 272.742 310.463 278.241 308.15 283.205C305.837 288.169 302.219 292.411 297.682 295.478C293.145 298.544 287.859 300.32 282.391 300.615H282.375Z" fill="#71B71E"/>
<path d="M285.274 255.928C282.281 256.779 279.411 258.013 276.735 259.599C274.049 261.197 271.819 263.457 270.258 266.163C269.208 268.252 268.454 270.477 268.018 272.774" stroke="#9FD327" stroke-width="1.412" stroke-miterlimit="10"/>
<path d="M170.356 300.888C170.361 305.836 169.146 310.709 166.817 315.074C164.489 319.44 161.12 323.164 157.008 325.916L156.988 325.94C151.05 329.943 143.882 331.704 136.765 330.909C129.647 330.115 123.045 326.815 118.136 321.601C113.227 316.387 110.331 309.597 109.967 302.445C109.602 295.293 111.792 288.244 116.146 282.558C116.146 282.511 116.146 282.511 116.193 282.511C120.025 277.489 125.336 273.796 131.378 271.953C137.419 270.109 143.887 270.207 149.87 272.234C155.853 274.261 161.049 278.114 164.726 283.251C168.403 288.387 170.376 294.548 170.366 300.865L170.356 300.888Z" fill="#61901A"/>
<path d="M163.242 307.586C163.253 314.213 161.067 320.658 157.025 325.91L156.988 325.94C151.05 329.943 143.882 331.704 136.765 330.909C129.648 330.115 123.045 326.816 118.136 321.601C113.227 316.387 110.331 309.597 109.967 302.445C109.602 295.293 111.793 288.244 116.146 282.558C116.146 282.511 116.146 282.511 116.193 282.511C120.738 279.459 126.027 277.699 131.495 277.42C136.963 277.141 142.404 278.353 147.237 280.927C152.069 283.501 156.111 287.34 158.931 292.033C161.751 296.726 163.242 302.097 163.245 307.573L163.242 307.586Z" fill="#71B71E"/>
<path d="M118.776 302.303C119.469 305.337 120.55 308.269 121.993 311.026C123.446 313.792 125.584 316.14 128.203 317.844C130.233 319.004 132.416 319.875 134.687 320.433" stroke="#9FD327" stroke-width="1.412" stroke-miterlimit="10"/>
<path d="M178.726 291.308C173.788 291.576 168.86 290.624 164.378 288.534C159.897 286.445 155.999 283.283 153.03 279.328L152.98 279.281C149.367 274.502 147.274 268.746 146.974 262.763C146.661 257.136 147.929 251.535 150.636 246.592C153.343 241.65 157.38 237.564 162.289 234.798C167.199 232.032 172.785 230.696 178.414 230.941C184.044 231.187 189.493 233.004 194.143 236.186C194.19 236.186 194.189 236.186 194.193 236.23C199.407 239.791 203.373 244.899 205.532 250.833C207.691 256.767 207.934 263.229 206.227 269.308C204.521 275.388 200.95 280.779 196.018 284.723C191.086 288.666 185.042 290.964 178.736 291.291L178.726 291.308Z" fill="#61901A"/>
<path d="M171.671 284.56C165.053 284.925 158.501 283.085 153.041 279.328L152.991 279.281C149.378 274.502 147.285 268.746 146.984 262.763C146.671 257.136 147.94 251.535 150.647 246.592C153.353 241.65 157.39 237.564 162.299 234.798C167.209 232.032 172.795 230.696 178.425 230.941C184.054 231.187 189.503 233.004 194.153 236.186C194.2 236.186 194.2 236.186 194.203 236.23C197.816 241.011 199.908 246.767 200.21 252.751C200.426 256.714 199.86 260.681 198.543 264.425C197.225 268.169 195.183 271.616 192.533 274.57C189.882 277.524 186.676 279.927 183.096 281.641C179.517 283.355 175.634 284.347 171.671 284.56Z" fill="#71B71E"/>
<path d="M174.564 239.874C171.572 240.726 168.702 241.959 166.025 243.545C163.339 245.142 161.108 247.404 159.548 250.112C158.497 252.201 157.744 254.426 157.308 256.723" stroke="#9FD327" stroke-width="1.412" stroke-miterlimit="10"/>
<path d="M197.743 341.544C192.806 341.813 187.878 340.861 183.396 338.771C178.914 336.682 175.016 333.519 172.048 329.564L171.998 329.52C168.386 324.74 166.293 318.985 165.991 313.002C165.678 307.375 166.946 301.773 169.652 296.83C172.359 291.887 176.396 287.801 181.305 285.035C186.215 282.268 191.801 280.932 197.431 281.177C203.061 281.422 208.51 283.239 213.16 286.422C213.207 286.422 213.207 286.422 213.21 286.469C218.425 290.031 222.391 295.138 224.55 301.072C226.709 307.006 226.952 313.468 225.245 319.548C223.538 325.627 219.968 331.019 215.036 334.962C210.104 338.906 204.059 341.203 197.753 341.53L197.743 341.544Z" fill="#61901A"/>
<path d="M190.692 334.8C184.074 335.162 177.522 333.32 172.061 329.564L172.011 329.52C168.399 324.74 166.307 318.986 166.005 313.002C165.691 307.375 166.959 301.773 169.666 296.83C172.372 291.888 176.409 287.801 181.319 285.035C186.228 282.268 191.814 280.932 197.444 281.177C203.074 281.422 208.523 283.239 213.174 286.422C213.22 286.422 213.22 286.422 213.224 286.469C216.836 291.249 218.928 297.004 219.231 302.988C219.448 306.951 218.881 310.918 217.564 314.662C216.247 318.406 214.205 321.854 211.555 324.808C208.904 327.763 205.698 330.166 202.118 331.88C198.538 333.595 194.655 334.587 190.692 334.8Z" fill="#71B71E"/>
<path d="M193.582 290.113C190.589 290.964 187.719 292.197 185.042 293.784C182.357 295.381 180.127 297.642 178.565 300.348C177.516 302.437 176.762 304.662 176.326 306.959" stroke="#9FD327" stroke-width="1.412" stroke-miterlimit="10"/>
<path d="M97.2149 241.586C97.2199 246.534 96.0044 251.406 93.676 255.772C91.3476 260.138 87.9784 263.862 83.8667 266.614L83.82 266.661C77.8814 270.66 70.7145 272.419 63.5989 271.624C56.4833 270.828 49.8822 267.529 44.974 262.316C40.0658 257.103 37.1701 250.315 36.8038 243.165C36.4376 236.014 38.6247 228.966 42.9745 223.279C42.9745 223.232 42.9745 223.232 43.0245 223.232C46.8573 218.209 52.1699 214.516 58.2134 212.672C64.2569 210.829 70.7264 210.929 76.7101 212.958C82.6938 214.987 87.8898 218.843 91.5655 223.982C95.2412 229.121 97.2114 235.284 97.1982 241.603L97.2149 241.586Z" fill="#61901A"/>
<path d="M90.1002 248.277C90.1096 254.904 87.9234 261.347 83.8832 266.6L83.8366 266.647C77.898 270.647 70.7311 272.406 63.6155 271.61C56.4999 270.814 49.8987 267.515 44.9905 262.302C40.0823 257.09 37.1867 250.302 36.8204 243.151C36.4542 236.001 38.6412 228.953 42.991 223.266C42.991 223.219 42.9911 223.219 43.0411 223.219C47.5864 220.166 52.8758 218.407 58.3437 218.128C63.8117 217.849 69.2527 219.061 74.0851 221.635C78.9175 224.209 82.9596 228.047 85.7792 232.741C88.5989 237.434 90.0901 242.805 90.0935 248.28L90.1002 248.277Z" fill="#71B71E"/>
<path d="M45.6307 243.001C46.3251 246.035 47.4074 248.967 48.851 251.724C50.3034 254.491 52.4417 256.838 55.0612 258.542C57.0913 259.7 59.2723 260.572 61.5418 261.131" stroke="#9FD327" stroke-width="1.412" stroke-miterlimit="10"/>
<path d="M105.598 232.002C100.66 232.271 95.7324 231.32 91.2505 229.231C86.7686 227.142 82.8708 223.98 79.9024 220.025L79.8524 219.978C75.5419 214.261 73.4038 207.197 73.82 200.049C74.2361 192.901 77.1794 186.133 82.1243 180.955C87.0692 175.776 93.6937 172.523 100.815 171.778C107.936 171.032 115.091 172.842 121.002 176.884C121.048 176.884 121.048 176.884 121.052 176.927C126.266 180.489 130.232 185.597 132.391 191.531C134.55 197.465 134.793 203.927 133.086 210.007C131.378 216.087 127.807 221.478 122.875 225.421C117.942 229.365 111.897 231.661 105.591 231.988L105.598 232.002Z" fill="#61901A"/>
<path d="M98.5231 225.257C91.9055 225.618 85.3545 223.778 79.8924 220.025L79.8423 219.978C75.5317 214.261 73.3937 207.197 73.8099 200.049C74.226 192.901 77.1693 186.133 82.1142 180.955C87.0591 175.776 93.6836 172.523 100.805 171.778C107.926 171.032 115.081 172.842 120.991 176.884C121.038 176.884 121.038 176.884 121.041 176.927C124.333 181.304 126.373 186.492 126.944 191.939C127.515 197.385 126.595 202.884 124.282 207.848C121.969 212.812 118.351 217.054 113.814 220.12C109.276 223.187 103.991 224.962 98.5231 225.257Z" fill="#71B71E"/>
<path d="M101.423 180.571C98.4305 181.422 95.5603 182.656 92.8835 184.242C90.1982 185.839 87.9679 188.099 86.4063 190.806C85.3556 192.895 84.6008 195.119 84.1638 197.416" stroke="#9FD327" stroke-width="1.412" stroke-miterlimit="10"/>
<path d="M124.599 282.241C119.661 282.509 114.733 281.557 110.252 279.467C105.77 277.378 101.872 274.216 98.9035 270.261L98.8535 270.218C94.5405 264.5 92.4005 257.436 92.8155 250.286C93.2306 243.137 96.1738 236.368 101.119 231.188C106.065 226.008 112.691 222.755 119.813 222.01C126.936 221.265 134.092 223.076 140.003 227.12C140.049 227.12 140.049 227.12 140.053 227.166C145.267 230.728 149.233 235.836 151.392 241.77C153.551 247.705 153.794 254.167 152.087 260.247C150.38 266.326 146.808 271.717 141.876 275.661C136.944 279.604 130.898 281.901 124.592 282.228L124.599 282.241Z" fill="#61901A"/>
<path d="M117.541 275.493C110.923 275.858 104.371 274.017 98.9103 270.261L98.8602 270.218C94.5473 264.5 92.4072 257.436 92.8223 250.286C93.2373 243.137 96.1805 236.368 101.126 231.188C106.072 226.008 112.698 222.755 119.82 222.01C126.943 221.265 134.099 223.076 140.009 227.12C140.056 227.12 140.056 227.12 140.059 227.166C143.351 231.542 145.392 236.731 145.963 242.177C146.534 247.624 145.613 253.123 143.3 258.086C140.988 263.05 137.369 267.292 132.832 270.358C128.294 273.424 123.009 275.199 117.541 275.493Z" fill="#71B71E"/>
<path d="M120.441 230.807C117.449 231.66 114.579 232.894 111.901 234.478C109.217 236.078 106.986 238.339 105.424 241.045C104.373 243.134 103.619 245.359 103.182 247.656" stroke="#9FD327" stroke-width="1.412" stroke-miterlimit="10"/>
<path d="M114.02 144.925C114.027 149.871 112.814 154.742 110.489 159.108C108.163 163.474 104.797 167.198 100.689 169.952L100.642 169.999C94.7031 173.997 87.5372 175.754 80.423 174.957C73.3087 174.16 66.709 170.861 61.8019 165.649C56.8947 160.437 53.9994 153.65 53.6327 146.501C53.2659 139.352 55.4517 132.305 59.7997 126.617C59.7997 126.571 59.7997 126.571 59.8465 126.571C63.6783 121.549 68.9893 117.856 75.0312 116.012C81.0731 114.168 87.5412 114.267 93.5241 116.294C99.507 118.321 104.703 122.174 108.38 127.31C112.057 132.447 114.03 138.608 114.02 144.925Z" fill="#61901A"/>
<path d="M106.909 151.615C106.919 158.243 104.732 164.687 100.689 169.939L100.642 169.986C94.7031 173.983 87.5372 175.74 80.423 174.944C73.3087 174.147 66.709 170.848 61.8019 165.636C56.8947 160.423 53.9994 153.637 53.6327 146.488C53.2659 139.338 55.4517 132.291 59.7997 126.604C59.7997 126.557 59.7997 126.557 59.8465 126.557C64.3918 123.505 69.6811 121.745 75.149 121.466C80.617 121.187 86.058 122.4 90.8903 124.973C95.7227 127.547 99.7648 131.386 102.584 136.079C105.404 140.772 106.895 146.144 106.899 151.619L106.909 151.615Z" fill="#71B71E"/>
<path d="M62.4392 146.339C63.1324 149.373 64.2137 152.305 65.6562 155.062C67.1096 157.828 69.2477 160.176 71.8664 161.88C73.8977 163.039 76.0797 163.91 78.3503 164.47" stroke="#9FD327" stroke-width="1.412" stroke-miterlimit="10"/>
<path d="M122.389 135.341C117.452 135.611 112.524 134.659 108.042 132.57C103.56 130.481 99.6624 127.319 96.6942 123.364L96.6441 123.317C93.0316 118.538 90.9389 112.783 90.6374 106.799C90.3244 101.173 91.5931 95.571 94.3 90.6286C97.0068 85.6862 101.044 81.6006 105.953 78.8345C110.862 76.0684 116.448 74.7324 122.078 74.9777C127.708 75.2231 133.156 77.04 137.807 80.2227C137.857 80.2227 137.857 80.2227 137.857 80.2661C143.071 83.8277 147.037 88.9351 149.196 94.8693C151.355 100.803 151.598 107.265 149.891 113.345C148.185 119.424 144.614 124.816 139.682 128.759C134.75 132.703 128.706 135 122.399 135.327L122.389 135.341Z" fill="#61901A"/>
<path d="M115.332 128.597C108.714 128.959 102.162 127.119 96.701 123.364L96.651 123.317C93.0385 118.538 90.9457 112.783 90.6443 106.799C90.3312 101.173 91.6 95.571 94.3069 90.6286C97.0137 85.6862 101.05 81.6006 105.96 78.8345C110.869 76.0684 116.455 74.7324 122.085 74.9777C127.715 75.2231 133.163 77.04 137.813 80.2227C137.864 80.2227 137.864 80.2227 137.864 80.2661C141.476 85.0461 143.568 90.8009 143.87 96.7845C144.087 100.748 143.521 104.715 142.204 108.459C140.887 112.203 138.845 115.651 136.194 118.605C133.544 121.56 130.337 123.963 126.757 125.677C123.178 127.392 119.295 128.384 115.332 128.597Z" fill="#71B71E"/>
<path d="M118.228 83.91C115.236 84.7618 112.366 85.9956 109.689 87.5808C107.002 89.1786 104.772 91.44 103.212 94.1481C102.161 96.2366 101.407 98.4617 100.972 100.759" stroke="#9FD327" stroke-width="1.412" stroke-miterlimit="10"/>
<path d="M141.407 185.58C136.469 185.849 131.542 184.896 127.06 182.807C122.578 180.717 118.68 177.555 115.712 173.6L115.662 173.557C112.044 168.779 109.945 163.024 109.638 157.038C109.325 151.412 110.593 145.81 113.3 140.867C116.006 135.924 120.043 131.838 124.952 129.071C129.862 126.305 135.448 124.968 141.078 125.214C146.708 125.459 152.157 127.276 156.808 130.459C156.858 130.459 156.858 130.459 156.858 130.505C162.072 134.067 166.038 139.174 168.197 145.109C170.356 151.043 170.599 157.504 168.892 163.584C167.186 169.664 163.615 175.055 158.683 178.998C153.751 182.942 147.707 185.239 141.401 185.567L141.407 185.58Z" fill="#61901A"/>
<path d="M134.349 178.833C127.731 179.197 121.179 177.357 115.719 173.6L115.669 173.557C112.051 168.779 109.952 163.024 109.645 157.038C109.331 151.412 110.6 145.81 113.306 140.867C116.013 135.924 120.05 131.838 124.959 129.071C129.869 126.305 135.455 124.968 141.085 125.214C146.715 125.459 152.164 127.276 156.814 130.459C156.864 130.459 156.864 130.459 156.864 130.505C160.477 135.285 162.57 141.04 162.871 147.024C163.088 150.985 162.522 154.951 161.206 158.694C159.889 162.436 157.849 165.883 155.2 168.837C152.551 171.791 149.347 174.194 145.769 175.909C142.191 177.624 138.311 178.618 134.349 178.833Z" fill="#71B71E"/>
<path d="M137.246 134.146C134.254 134.998 131.383 136.232 128.706 137.817C126.021 139.414 123.791 141.674 122.229 144.381C121.18 146.47 120.426 148.694 119.99 150.991" stroke="#9FD327" stroke-width="1.412" stroke-miterlimit="10"/>
<path d="M206.734 101.75C201.796 102.018 196.868 101.066 192.386 98.9762C187.905 96.8867 184.007 93.7247 181.038 89.77L180.988 89.7233C176.674 84.0055 174.533 76.9401 174.948 69.7893C175.364 62.6386 178.308 55.8684 183.255 50.6884C188.202 45.5083 194.829 42.2559 201.953 41.5122C209.078 40.7685 216.234 42.582 222.144 46.6286C222.191 46.6286 222.191 46.6286 222.194 46.672C227.414 50.2326 231.384 55.3413 233.546 61.2781C235.708 67.2149 235.952 73.6805 234.245 79.7635C232.537 85.8466 228.964 91.2405 224.028 95.185C219.092 99.1295 213.044 101.426 206.734 101.75Z" fill="#61901A"/>
<path d="M199.675 95.0156C193.057 95.3799 186.506 93.5397 181.045 89.7832L180.995 89.7364C176.675 84.0198 174.528 76.9529 174.94 69.7992C175.352 62.6456 178.295 55.8717 183.243 50.6885C188.19 45.5054 194.82 42.251 201.947 41.5071C209.074 40.7633 216.233 42.5786 222.144 46.6285C222.191 46.6285 222.191 46.6285 222.194 46.6718C225.489 51.0483 227.532 56.2385 228.105 61.6868C228.678 67.1351 227.759 72.6367 225.445 77.6027C223.132 82.5688 219.512 86.8125 214.973 89.8797C210.434 92.9469 205.146 94.7222 199.675 95.0156Z" fill="#71B71E"/>
<path d="M202.575 50.3159C199.583 51.1671 196.713 52.4008 194.036 53.9867C191.35 55.5844 189.119 57.8459 187.559 60.554C186.507 62.6425 185.753 64.8676 185.316 67.1647" stroke="#9FD327" stroke-width="1.412" stroke-miterlimit="10"/>
<path d="M225.751 151.986C220.813 152.255 215.886 151.303 211.404 149.213C206.922 147.123 203.024 143.961 200.056 140.006L200.006 139.963C195.693 134.245 193.553 127.181 193.968 120.031C194.383 112.882 197.326 106.113 202.272 100.933C207.217 95.753 213.843 92.5 220.966 91.7548C228.089 91.0095 235.244 92.8206 241.155 96.8646C241.202 96.8646 241.202 96.8646 241.205 96.9113C246.42 100.473 250.386 105.581 252.544 111.515C254.703 117.45 254.946 123.912 253.239 129.992C251.532 136.071 247.961 141.462 243.028 145.406C238.096 149.349 232.051 151.646 225.745 151.973L225.751 151.986Z" fill="#61901A"/>
<path d="M218.693 145.238C212.075 145.603 205.523 143.762 200.063 140.006L200.013 139.963C195.7 134.245 193.56 127.181 193.975 120.031C194.39 112.882 197.333 106.113 202.279 100.933C207.224 95.753 213.85 92.5 220.973 91.7548C228.095 91.0095 235.251 92.8206 241.162 96.8646C241.209 96.8646 241.209 96.8646 241.212 96.9113C244.504 101.287 246.544 106.476 247.115 111.922C247.686 117.369 246.766 122.868 244.453 127.831C242.14 132.795 238.521 137.037 233.984 140.103C229.447 143.169 224.162 144.944 218.693 145.238Z" fill="#71B71E"/>
<path d="M221.593 100.555C218.6 101.405 215.73 102.639 213.054 104.226C210.369 105.824 208.138 108.084 206.577 110.79C205.526 112.879 204.771 115.104 204.334 117.401" stroke="#9FD327" stroke-width="1.412" stroke-miterlimit="10"/>
<path d="M198.367 111.33C198.374 116.277 197.161 121.148 194.836 125.514C192.511 129.879 189.144 133.604 185.036 136.358L184.986 136.405C179.047 140.402 171.881 142.16 164.767 141.363C157.653 140.566 151.053 137.267 146.146 132.055C141.239 126.843 138.343 120.056 137.977 112.907C137.61 105.757 139.796 98.7104 144.144 93.0234C144.144 92.9766 144.144 92.9766 144.194 92.9766C148.026 87.9547 153.337 84.2617 159.379 82.418C165.42 80.5743 171.889 80.6728 177.871 82.6998C183.854 84.7268 189.05 88.58 192.727 93.7164C196.404 98.8528 198.377 105.013 198.367 111.33Z" fill="#61901A"/>
<path d="M191.253 118.021C191.263 124.648 189.076 131.092 185.036 136.345L184.986 136.392C179.047 140.389 171.881 142.146 164.767 141.349C157.653 140.553 151.053 137.254 146.146 132.041C141.239 126.829 138.343 120.043 137.977 112.893C137.61 105.744 139.796 98.6969 144.144 93.0099C144.144 92.9632 144.144 92.9632 144.194 92.9632C148.739 89.9109 154.028 88.1511 159.496 87.8721C164.964 87.5931 170.405 88.8054 175.238 91.3792C180.07 93.953 184.112 97.7917 186.932 102.485C189.751 107.178 191.243 112.549 191.246 118.024L191.253 118.021Z" fill="#71B71E"/>
<path d="M146.783 112.745C147.477 115.779 148.56 118.711 150.003 121.468C151.456 124.235 153.594 126.582 156.214 128.286C158.243 129.446 160.424 130.317 162.694 130.875" stroke="#9FD327" stroke-width="1.412" stroke-miterlimit="10"/>
<path d="M255.798 85.1149C219.778 122.712 183.718 160.334 147.618 197.98C146.682 198.712 145.61 199.251 144.464 199.565C143.318 199.879 142.122 199.962 140.944 199.809C138.967 199.682 137.107 198.831 135.718 197.42C134.524 196.127 133.737 194.511 133.454 192.773C133.172 191.036 133.407 189.254 134.129 187.649C143.473 149.764 186.321 101.343 215.016 53.8567C218.081 48.7552 222.816 44.87 228.417 42.8592C234.019 40.8484 240.143 40.8356 245.753 42.8229C251.363 44.8103 256.113 48.6757 259.2 53.7644C262.286 58.853 263.519 64.8522 262.689 70.7455C262.026 76.1602 259.605 81.2078 255.798 85.1149Z" fill="#FD9443"/>
<path d="M255.798 85.115C219.778 122.712 183.718 160.334 147.618 197.981C146.682 198.712 145.61 199.251 144.464 199.565C143.318 199.879 142.122 199.962 140.943 199.809C153.217 162.958 192.771 117.434 219.818 72.6978C221.723 69.5524 224.275 66.8488 227.307 64.7672C230.338 62.6856 233.778 61.2737 237.397 60.6255C241.017 59.9773 244.733 60.1076 248.298 61.008C251.864 61.9083 255.196 63.5579 258.074 65.8469C259.854 67.2339 261.41 68.8861 262.689 70.7456C262.026 76.1603 259.605 81.2079 255.798 85.115Z" fill="#FF750D"/>
<path opacity="0.29" d="M230.67 94.5319C205.068 121.248 179.452 147.981 153.821 174.731C169.749 142.929 199.612 106.412 222.121 70.1848C226.078 71.0115 229.787 72.7519 232.953 75.2671C234.734 76.653 236.291 78.304 237.571 80.1626C236.904 85.5781 234.48 90.6256 230.67 94.5319Z" fill="#ED4308"/>
<path d="M298.662 143.306C252.522 167.438 206.336 191.576 160.105 215.72C158.986 216.114 157.799 216.281 156.615 216.213C155.43 216.145 154.271 215.843 153.204 215.323C151.372 214.57 149.88 213.17 149.013 211.389C148.294 209.782 148.065 208 148.353 206.263C148.64 204.527 149.433 202.914 150.631 201.625C171.574 168.705 227.647 136.502 270.004 100.666C274.538 96.8098 280.265 94.6396 286.215 94.5227C292.166 94.4058 297.974 96.3494 302.656 100.024C307.337 103.699 310.605 108.879 311.905 114.687C313.205 120.495 312.457 126.574 309.788 131.894C307.427 136.812 303.519 140.821 298.662 143.306Z" fill="#FD9443"/>
<path d="M298.663 143.306C252.522 167.438 206.336 191.576 160.105 215.72C158.986 216.114 157.799 216.281 156.615 216.213C155.43 216.145 154.271 215.843 153.204 215.323C176.603 184.322 228.621 153.811 268.539 120.057C271.348 117.684 274.63 115.936 278.167 114.931C281.705 113.926 285.415 113.686 289.053 114.227C292.69 114.769 296.17 116.079 299.261 118.072C302.352 120.064 304.983 122.692 306.978 125.78C308.223 127.662 309.17 129.724 309.788 131.894C307.427 136.812 303.519 140.821 298.663 143.306Z" fill="#FF750D"/>
<path opacity="0.29" d="M271.843 144.207L173.4 195.665C198.645 170.614 238.609 145.546 271.509 118.402C274.995 120.451 277.954 123.284 280.152 126.678C281.396 128.56 282.345 130.622 282.965 132.791C280.606 137.711 276.699 141.721 271.843 144.207Z" fill="#ED4308"/>
<path d="M324.351 215.944C272.542 221.181 220.692 226.409 168.801 231.628C167.616 231.577 166.452 231.291 165.377 230.787C164.303 230.283 163.339 229.57 162.541 228.692C161.12 227.311 160.256 225.455 160.115 223.479C160.046 221.72 160.496 219.98 161.409 218.475C162.323 216.97 163.659 215.767 165.251 215.016C196.936 192.251 260.964 183.221 313.613 165.715C319.25 163.834 325.364 163.957 330.922 166.063C336.479 168.169 341.14 172.128 344.115 177.273C347.091 182.417 348.2 188.431 347.255 194.298C346.31 200.166 343.368 205.527 338.927 209.477C334.907 213.169 329.787 215.441 324.351 215.944Z" fill="#FD9443"/>
<path d="M324.351 215.944C272.543 221.181 220.693 226.409 168.801 231.628C167.616 231.577 166.452 231.291 165.377 230.787C164.303 230.283 163.339 229.57 162.541 228.692C195.795 208.619 255.431 199.659 305.033 183.168C308.523 182.01 312.22 181.609 315.877 181.991C319.534 182.374 323.068 183.532 326.243 185.388C329.417 187.244 332.16 189.754 334.288 192.753C336.416 195.752 337.88 199.17 338.584 202.779C339.038 204.989 339.15 207.256 338.917 209.5C334.897 213.182 329.78 215.445 324.351 215.944Z" fill="#FF750D"/>
<path opacity="0.29" d="M299.123 206.807L188.61 217.953C221.363 204.091 267.782 195.691 308.41 182.734C310.881 185.932 312.573 189.663 313.352 193.629C313.806 195.839 313.919 198.106 313.686 200.35C309.668 204.037 304.553 206.305 299.123 206.807Z" fill="#ED4308"/>
<path d="M221.179 208.756L221.059 209.043C216.017 221.117 206.385 230.694 194.282 235.666C182.179 240.638 168.597 240.599 156.522 235.557C144.448 230.515 134.872 220.883 129.899 208.78C124.927 196.677 124.966 183.095 130.008 171.02L130.128 170.73L221.179 208.756Z" fill="#F7D316"/>
<path d="M217.011 207.354C214.737 212.801 211.411 217.747 207.225 221.909C203.039 226.071 198.074 229.368 192.613 231.611C187.153 233.854 181.304 235 175.401 234.982C169.498 234.965 163.656 233.786 158.209 231.511C152.762 229.236 147.816 225.911 143.654 221.724C139.492 217.538 136.196 212.573 133.953 207.113C131.709 201.653 130.564 195.804 130.581 189.901C130.598 183.998 131.778 178.156 134.052 172.709C134.091 172.611 134.136 172.516 134.189 172.425L217.118 207.057C217.092 207.159 217.056 207.258 217.011 207.354Z" fill="#F5F164"/>
<path d="M172.612 197.69C172.051 197.364 171.4 197.228 170.756 197.303C170.112 197.377 169.509 197.658 169.038 198.104L153.651 221.36C153.462 221.735 153.409 222.165 153.502 222.575C153.594 222.985 153.826 223.351 154.158 223.609C155.707 225.192 157.541 226.468 159.564 227.37C161.943 228.468 164.532 229.038 167.152 229.038C168.21 229.038 168.958 228.551 169.115 227.817L174.831 200.53C175.038 199.522 174.087 198.307 172.612 197.69Z" fill="#F7D316"/>
<path d="M168 191.056C167.94 189.461 167.139 188.14 166.128 187.986L138.567 183.741C137.826 183.628 137.119 184.162 136.735 185.143C135.946 187.212 135.554 189.412 135.581 191.627C135.58 194.246 136.15 196.834 137.249 199.212C137.7 200.17 138.447 200.65 139.178 200.483L166.351 194.256C167.369 194.026 168.073 192.655 168 191.056Z" fill="#F7D316"/>
<path d="M179.613 197.033C180.103 196.608 180.717 196.353 181.363 196.306C182.01 196.26 182.654 196.423 183.2 196.773L202.652 216.755C202.908 217.089 203.04 217.502 203.025 217.922C203.011 218.343 202.851 218.745 202.572 219.061C201.346 220.904 199.782 222.5 197.963 223.763C195.829 225.282 193.39 226.32 190.816 226.806C190.416 226.939 189.982 226.928 189.589 226.776C189.196 226.624 188.869 226.339 188.663 225.972L177.961 200.227C177.571 199.285 178.278 197.914 179.613 197.033Z" fill="#F7D316"/>
</svg>
