<svg width="578" height="361" viewBox="0 0 578 361" fill="none" xmlns="http://www.w3.org/2000/svg">
<path d="M309.881 360.985H266.303C163.732 360.985 73.8487 312.802 46.8454 243.341L8.95325 145.886H567.241L529.339 243.328C502.336 312.802 412.452 360.985 309.881 360.985Z" fill="#A9A886"/>
<path opacity="0.15" d="M323.754 360.705C319.155 360.875 314.513 360.988 309.871 360.988H266.283C163.729 360.988 73.8488 312.798 46.8087 243.331L8.95325 145.889H80.2659L118.165 243.327C143.953 309.655 227.013 356.57 323.754 360.705Z" fill="#F1D4C1"/>
<path d="M577.262 140.717C577.262 218.47 448.049 281.483 288.655 281.483C129.261 281.483 0 218.466 0 140.717C0 63.0167 129.261 0 288.655 0C448.049 0 577.262 63.0167 577.262 140.717Z" fill="#F7F9EF"/>
<path d="M554.888 139.775C554.888 164.92 537.201 188.163 507.101 207.297C459.048 237.808 379.242 257.783 288.958 257.783C142.092 257.783 23.0324 204.955 23.0324 139.775C23.0243 137.67 23.1592 135.566 23.4362 133.478C30.7777 71.2458 146.854 21.8042 288.958 21.8042C435.825 21.8042 554.888 74.6363 554.888 139.775Z" fill="#FA5D0A"/>
<path opacity="0.74" d="M518.437 192.604C518.445 194.71 518.31 196.814 518.033 198.901C469.98 229.412 390.178 249.387 299.894 249.387C153.027 249.387 33.9647 196.559 33.9647 131.38C33.9582 129.274 34.0931 127.17 34.3685 125.082C82.422 94.5718 162.227 74.5929 252.511 74.5929C399.378 74.5996 518.437 127.432 518.437 192.604Z" fill="#E51D04"/>
<path d="M507.515 200.99C507.523 203.096 507.388 205.2 507.111 207.287C472.606 229.202 421.713 245.663 362.343 253.259C338.004 256.297 313.499 257.806 288.971 257.777C145.575 257.777 28.6518 207.408 23.2858 144.317C23.122 142.802 23.0407 141.279 23.0422 139.756C23.0359 137.651 23.1708 135.548 23.446 133.462C71.4995 102.948 151.305 82.9724 241.589 82.9724C388.456 82.9824 507.515 135.811 507.515 200.99Z" fill="#FE7210"/>
<path opacity="0.26" d="M362.343 253.259C338.005 256.297 313.499 257.806 288.972 257.777C145.575 257.777 28.652 207.408 23.286 144.317C47.6112 141.277 72.1033 139.768 96.6177 139.799C240.054 139.809 356.964 190.215 362.343 253.259Z" fill="#E51D04"/>
<path d="M558.425 136.946C558.425 154.422 549.722 171.05 534.158 185.944C534.158 120.801 424.506 67.9724 289.242 67.9724C153.978 67.9724 44.2827 120.801 44.2827 185.93C28.6753 171.037 20.0157 154.409 20.0157 136.932C20.0157 71.7532 140.533 18.921 289.242 18.921C437.951 18.921 558.425 71.7664 558.425 136.946Z" fill="#BDB6A3"/>
<path d="M197.75 180.768C197.755 186.402 196.089 191.911 192.963 196.598C189.836 201.285 185.39 204.939 180.186 207.098C174.982 209.258 169.255 209.825 163.729 208.728C158.202 207.632 153.125 204.92 149.14 200.938C145.155 196.955 142.441 191.88 141.341 186.354C140.241 180.828 140.805 175.101 142.961 169.895C145.118 164.69 148.769 160.242 153.454 157.113C158.14 153.983 163.648 152.314 169.282 152.316C173.023 152.302 176.729 153.029 180.188 154.454C183.647 155.878 186.79 157.974 189.437 160.618C192.083 163.262 194.179 166.404 195.606 169.862C197.033 173.321 197.762 177.027 197.75 180.768Z" fill="#A00001"/>
<path d="M192.655 187.489C192.654 193.118 190.984 198.621 187.856 203.302C184.728 207.982 180.282 211.63 175.081 213.784C169.88 215.938 164.157 216.502 158.635 215.403C153.114 214.305 148.042 211.594 144.062 207.613C140.081 203.632 137.37 198.561 136.272 193.039C135.173 187.518 135.737 181.795 137.891 176.594C140.045 171.393 143.693 166.947 148.373 163.819C153.054 160.691 158.557 159.021 164.186 159.02C167.139 159.02 173.046 158.039 176.703 161.917C178.529 164.02 179.521 166.72 179.49 169.505C182.027 169.03 184.65 169.427 186.932 170.633C193.652 174.548 192.655 185.754 192.655 187.489Z" fill="#C70A02"/>
<path d="M180.05 169.912L178.932 169.098C180.088 167.505 181.568 166.176 183.276 165.198C184.983 164.22 186.879 163.616 188.837 163.425C191.408 163.256 193.971 163.846 196.208 165.124L195.541 166.332C193.541 165.183 191.245 164.652 188.944 164.807C187.184 164.98 185.482 165.524 183.949 166.404C182.416 167.285 181.087 168.48 180.05 169.912Z" fill="#80C870"/>
<path d="M189.274 156.708C189.677 158.338 189.507 160.057 188.792 161.577C188.077 163.096 186.86 164.323 185.346 165.05C184.093 164.003 183.063 162.714 182.318 161.261C181.573 159.808 181.127 158.22 181.008 156.591C180.936 154.747 181.316 152.914 182.116 151.252C183.747 151.231 185.338 151.757 186.635 152.746C187.932 153.735 188.861 155.13 189.274 156.708Z" fill="#80C870"/>
<path d="M188.713 165.818C189.201 166.383 189.478 167.099 189.499 167.845C189.52 168.591 189.282 169.321 188.827 169.913C188.121 169.747 187.456 169.442 186.871 169.015C186.286 168.588 185.792 168.048 185.42 167.426C185.024 166.71 184.809 165.908 184.792 165.091C185.434 164.758 186.168 164.649 186.878 164.781C187.588 164.912 188.234 165.277 188.713 165.818Z" fill="#80C870"/>
<path d="M397.983 171.915C400.177 174.151 401.659 176.988 402.241 180.067C402.823 183.145 402.478 186.327 401.251 189.21C400.024 192.093 397.969 194.547 395.347 196.262C392.725 197.977 389.653 198.875 386.52 198.844C383.387 198.813 380.334 197.853 377.747 196.086C375.16 194.319 373.154 191.824 371.985 188.918C370.816 186.011 370.535 182.823 371.178 179.756C371.821 176.69 373.359 173.883 375.598 171.691C377.08 170.231 378.836 169.079 380.764 168.3C382.693 167.521 384.757 167.13 386.837 167.151C388.917 167.172 390.973 167.603 392.885 168.421C394.798 169.238 396.53 170.426 397.983 171.915Z" fill="#A00001"/>
<path d="M398.574 176.557C400.763 178.794 402.239 181.629 402.817 184.705C403.394 187.781 403.047 190.96 401.819 193.838C400.59 196.717 398.536 199.167 395.915 200.878C393.295 202.59 390.226 203.486 387.096 203.453C383.966 203.42 380.916 202.461 378.332 200.695C375.748 198.929 373.745 196.437 372.577 193.534C371.409 190.63 371.128 187.445 371.77 184.381C372.411 181.318 373.947 178.514 376.182 176.323C377.357 175.175 379.322 172.485 382.285 172.605C382.699 173.248 383.277 173.768 383.96 174.11C384.642 174.453 385.405 174.606 386.167 174.552C386.929 174.499 387.663 174.242 388.292 173.808C388.92 173.374 389.421 172.779 389.74 172.085C393.932 171.027 397.899 175.866 398.574 176.557Z" fill="#C70A02"/>
<path d="M386.727 174.477L385.966 174.591C385.806 173.508 385.878 172.404 386.176 171.352C386.475 170.299 386.994 169.322 387.698 168.484C388.652 167.416 389.9 166.653 391.285 166.292L391.486 167.036C390.244 167.357 389.126 168.038 388.272 168.995C387.642 169.748 387.178 170.626 386.912 171.571C386.646 172.516 386.583 173.506 386.727 174.477Z" fill="#80C870"/>
<path d="M385.252 165.641C386.049 166.13 386.653 166.881 386.962 167.764C387.27 168.648 387.264 169.61 386.944 170.49C386.04 170.56 385.132 170.45 384.272 170.163C383.412 169.876 382.619 169.42 381.938 168.821C381.194 168.116 380.632 167.241 380.3 166.272C380.938 165.631 381.771 165.221 382.668 165.106C383.565 164.992 384.474 165.18 385.252 165.641Z" fill="#80C870"/>
<path d="M388.572 169.479C388.986 169.514 389.376 169.69 389.674 169.979C389.973 170.268 390.162 170.651 390.211 171.064C389.864 171.274 389.479 171.412 389.077 171.47C388.676 171.527 388.267 171.502 387.875 171.398C387.441 171.271 387.044 171.042 386.717 170.73C386.841 170.344 387.091 170.01 387.428 169.783C387.764 169.556 388.168 169.449 388.572 169.479Z" fill="#80C870"/>
<path d="M299.543 109.021C300.986 110.491 301.96 112.355 302.342 114.378C302.725 116.402 302.498 118.493 301.692 120.388C300.886 122.282 299.535 123.895 297.812 125.022C296.089 126.149 294.07 126.74 292.011 126.719C289.952 126.699 287.945 126.068 286.245 124.907C284.545 123.745 283.227 122.106 282.459 120.195C281.69 118.285 281.506 116.19 281.929 114.175C282.351 112.159 283.362 110.315 284.834 108.874C285.808 107.916 286.962 107.159 288.229 106.647C289.496 106.136 290.852 105.879 292.219 105.893C293.586 105.906 294.936 106.19 296.193 106.727C297.45 107.264 298.589 108.043 299.543 109.021Z" fill="#6AA07D"/>
<path d="M299.93 112.078C301.512 113.692 302.525 115.778 302.816 118.019C303.107 120.26 302.66 122.535 301.543 124.5C300.426 126.465 298.7 128.013 296.626 128.909C294.551 129.806 292.241 130.003 290.045 129.471C287.849 128.938 285.885 127.705 284.452 125.957C283.019 124.21 282.194 122.043 282.101 119.785C282.008 117.527 282.654 115.3 283.939 113.441C285.224 111.582 287.08 110.192 289.225 109.482C290.81 108.99 292.487 108.875 294.124 109.148C296.312 109.512 298.338 110.534 299.93 112.078Z" fill="#4D7F5F"/>
<path d="M278.737 195.851C280.179 197.321 281.153 199.185 281.536 201.208C281.918 203.232 281.692 205.323 280.886 207.218C280.079 209.112 278.729 210.725 277.006 211.852C275.283 212.979 273.264 213.57 271.205 213.549C269.146 213.529 267.139 212.898 265.439 211.737C263.738 210.576 262.421 208.936 261.652 207.026C260.884 205.115 260.699 203.02 261.122 201.005C261.545 198.989 262.556 197.145 264.027 195.704C265.002 194.747 266.156 193.99 267.423 193.479C268.69 192.968 270.046 192.712 271.413 192.726C272.779 192.739 274.129 193.022 275.386 193.559C276.643 194.095 277.782 194.874 278.737 195.851Z" fill="#6CBA20"/>
<path d="M279.124 198.911C280.705 200.526 281.718 202.611 282.009 204.853C282.3 207.094 281.853 209.369 280.737 211.334C279.62 213.298 277.894 214.846 275.819 215.743C273.745 216.64 271.435 216.837 269.239 216.304C267.042 215.771 265.079 214.538 263.646 212.791C262.213 211.043 261.387 208.877 261.295 206.618C261.202 204.36 261.847 202.133 263.133 200.275C264.418 198.416 266.273 197.026 268.419 196.315C270.003 195.823 271.681 195.709 273.317 195.981C275.506 196.344 277.532 197.366 279.124 198.911Z" fill="#BFE344"/>
<path d="M459.805 183.898C461.246 185.367 462.219 187.231 462.601 189.254C462.983 191.276 462.756 193.366 461.95 195.26C461.144 197.153 459.794 198.765 458.071 199.892C456.349 201.018 454.331 201.609 452.273 201.588C450.215 201.567 448.209 200.937 446.509 199.776C444.81 198.616 443.492 196.977 442.724 195.068C441.956 193.159 441.771 191.064 442.193 189.05C442.615 187.035 443.625 185.191 445.095 183.751C446.067 182.788 447.22 182.027 448.488 181.513C449.756 180.998 451.113 180.74 452.481 180.754C453.849 180.768 455.201 181.053 456.458 181.592C457.715 182.132 458.853 182.916 459.805 183.898Z" fill="#D0CE19"/>
<path d="M460.192 186.955C461.773 188.569 462.785 190.654 463.076 192.894C463.367 195.135 462.92 197.409 461.803 199.373C460.687 201.337 458.961 202.884 456.887 203.781C454.813 204.677 452.504 204.874 450.309 204.341C448.113 203.808 446.151 202.575 444.718 200.828C443.285 199.081 442.46 196.916 442.368 194.658C442.275 192.401 442.921 190.175 444.206 188.317C445.491 186.458 447.346 185.069 449.49 184.358C451.075 183.868 452.752 183.754 454.389 184.025C456.576 184.389 458.601 185.411 460.192 186.955Z" fill="#E7F03C"/>
<path d="M143.633 108.274C144.63 109.289 145.304 110.577 145.568 111.975C145.833 113.373 145.677 114.818 145.12 116.127C144.563 117.437 143.631 118.551 142.44 119.33C141.249 120.109 139.854 120.518 138.432 120.504C137.009 120.49 135.622 120.054 134.447 119.252C133.272 118.449 132.362 117.316 131.831 115.996C131.3 114.676 131.172 113.229 131.464 111.836C131.757 110.444 132.455 109.169 133.472 108.174C134.144 107.509 134.94 106.985 135.816 106.63C136.692 106.275 137.629 106.097 138.574 106.106C139.518 106.116 140.452 106.312 141.32 106.684C142.189 107.056 142.975 107.596 143.633 108.274Z" fill="#D0CE19"/>
<path d="M143.904 110.386C144.997 111.501 145.697 112.942 145.898 114.49C146.099 116.039 145.791 117.61 145.02 118.968C144.249 120.325 143.056 121.395 141.623 122.015C140.19 122.635 138.594 122.771 137.077 122.403C135.56 122.036 134.203 121.184 133.213 119.977C132.223 118.77 131.652 117.273 131.588 115.713C131.524 114.153 131.969 112.614 132.857 111.33C133.745 110.046 135.027 109.085 136.509 108.594C137.603 108.253 138.762 108.172 139.893 108.357C141.404 108.612 142.803 109.319 143.904 110.386Z" fill="#E7F03C"/>
<path d="M104.606 182.089L100.789 173.577L107.833 179.006C107.317 176.22 107.268 174.753 107.686 174.604C108.203 174.422 109.426 176.232 111.357 180.034C112.63 177.707 113.579 176.624 114.204 176.787C115.238 177.056 115.378 180.757 114.624 187.889C114.554 188.518 114.342 189.123 114.003 189.658C113.665 190.193 113.21 190.644 112.672 190.978C112.134 191.311 111.528 191.518 110.898 191.583C110.269 191.648 109.633 191.569 109.038 191.353C103.605 189.377 100.953 188.154 101.083 187.682C101.178 187.326 102.793 187.375 105.928 187.829L101.083 182.253L104.606 182.089Z" fill="#94D38F"/>
<path d="M320.413 215.99L316.599 207.478L323.644 212.91C323.125 210.123 323.076 208.654 323.497 208.505C324.011 208.323 325.234 210.133 327.168 213.935C328.442 211.608 329.391 210.525 330.014 210.688C331.053 210.957 331.194 214.658 330.438 221.79C330.367 222.419 330.154 223.023 329.816 223.558C329.478 224.093 329.023 224.543 328.485 224.877C327.947 225.21 327.341 225.418 326.712 225.483C326.082 225.548 325.446 225.47 324.852 225.254C319.419 223.281 316.767 222.057 316.896 221.583C316.992 221.227 318.606 221.276 321.738 221.73L316.896 216.154L320.413 215.99Z" fill="#94D38F"/>
<path d="M426.742 144.004L422.927 135.494L429.972 140.923C429.456 138.138 429.407 136.67 429.825 136.519C430.339 136.338 431.563 138.149 433.496 141.951C434.771 139.622 435.719 138.539 436.342 138.701C437.379 138.972 437.52 142.674 436.766 149.807C436.695 150.435 436.482 151.039 436.143 151.573C435.805 152.108 435.35 152.558 434.812 152.891C434.274 153.224 433.668 153.431 433.039 153.496C432.41 153.561 431.774 153.483 431.18 153.267C425.747 151.294 423.095 150.07 423.224 149.596C423.32 149.236 424.934 149.285 428.066 149.743L423.224 144.164L426.742 144.004Z" fill="#94D38F"/>
<path d="M216.067 119.79L212.253 111.277L219.297 116.707C218.781 113.919 218.732 112.452 219.15 112.305C219.664 112.123 220.888 113.932 222.821 117.734C224.096 115.407 225.045 114.325 225.668 114.487C226.702 114.757 226.844 118.457 226.092 125.59C226.021 126.219 225.808 126.823 225.47 127.358C225.131 127.892 224.676 128.343 224.139 128.677C223.601 129.01 222.995 129.217 222.365 129.282C221.736 129.348 221.1 129.269 220.505 129.054C215.073 127.078 212.421 125.855 212.55 125.383C212.643 125.027 214.257 125.076 217.392 125.53L212.55 119.953L216.067 119.79Z" fill="#94D38F"/>
<path d="M257.083 145.038C259.442 144.066 262.086 144.044 264.461 144.978C272.952 148.011 279.948 154.198 283.996 162.254C285.626 165.949 286.393 169.967 286.237 174.002C286.082 178.038 285.008 181.985 283.099 185.543C282.289 186.939 281.101 188.079 279.673 188.83C278.244 189.58 276.632 189.913 275.023 189.788L238.612 188.396C236.628 188.445 234.696 187.763 233.181 186.48C231.667 185.198 230.676 183.403 230.397 181.439C230.108 177.355 230.626 173.255 231.922 169.372C236.654 155.229 250.322 147.905 257.083 145.038Z" fill="#D49D3A"/>
<path d="M269.51 153.007C269.846 152.696 270.28 152.514 270.737 152.491C271.194 152.469 271.645 152.607 272.009 152.883C275.424 155.551 277.714 159.402 278.426 163.675C279.452 168.602 279.257 173.705 277.856 178.539C277.362 180.281 276.254 181.382 275.073 181.339L262.759 180.868C261.257 180.811 260.089 178.919 260.056 176.53C260.008 173.942 260.232 171.356 260.723 168.815C261.714 162.68 264.823 157.087 269.51 153.007Z" fill="#BF4D04"/>
<path d="M366.641 113.747C368.164 113.12 369.87 113.105 371.403 113.707C376.877 115.671 381.385 119.665 383.994 124.862C385.045 127.245 385.539 129.835 385.439 132.437C385.339 135.039 384.647 137.584 383.417 139.879C382.895 140.781 382.128 141.516 381.206 142.001C380.284 142.486 379.243 142.7 378.204 142.619L354.708 141.721C353.428 141.753 352.181 141.313 351.203 140.486C350.226 139.658 349.586 138.501 349.405 137.233C349.225 134.596 349.565 131.949 350.407 129.444C353.45 120.324 362.27 115.595 366.641 113.747Z" fill="#FB9B74"/>
<path d="M374.65 118.889C374.867 118.689 375.148 118.572 375.442 118.558C375.737 118.544 376.027 118.634 376.262 118.812C378.467 120.532 379.945 123.018 380.403 125.777C381.066 128.956 380.94 132.249 380.036 135.367C379.702 136.492 379.002 137.203 378.241 137.173L370.292 136.869C369.324 136.832 368.577 135.611 368.547 134.066C368.515 132.397 368.657 130.73 368.971 129.091C369.614 125.131 371.623 121.522 374.65 118.889Z" fill="#BF4D04"/>
<path opacity="0.74" d="M105.351 142.452C106.578 141.945 107.953 141.934 109.188 142.422C113.606 143.998 117.245 147.217 119.35 151.409C120.199 153.33 120.598 155.42 120.518 157.519C120.438 159.618 119.879 161.671 118.886 163.522C118.465 164.249 117.847 164.841 117.103 165.232C116.36 165.623 115.522 165.796 114.684 165.731L95.7433 165.007C94.711 165.034 93.705 164.68 92.9167 164.013C92.1285 163.346 91.6131 162.412 91.4685 161.39C91.3177 159.264 91.5876 157.13 92.2627 155.109C93.4607 152.216 95.2406 149.599 97.492 147.421C99.7434 145.244 102.418 143.553 105.351 142.452Z" fill="#E51D04"/>
<path d="M111.804 146.597C111.978 146.432 112.205 146.336 112.443 146.324C112.682 146.313 112.917 146.387 113.106 146.533C114.882 147.922 116.072 149.926 116.443 152.149C116.978 154.711 116.876 157.365 116.146 159.878C115.889 160.786 115.312 161.36 114.698 161.336L108.294 161.093C107.513 161.063 106.909 160.091 106.886 158.833C106.858 157.491 106.97 156.149 107.219 154.829C107.738 151.633 109.36 148.72 111.804 146.597Z" fill="#C70A02"/>
<path opacity="0.74" d="M382.179 217.185C382.895 216.891 383.697 216.885 384.418 217.168C386.997 218.089 389.122 219.968 390.351 222.414C390.846 223.536 391.078 224.756 391.031 225.981C390.983 227.207 390.657 228.405 390.077 229.485C389.831 229.909 389.471 230.255 389.037 230.483C388.603 230.711 388.113 230.811 387.625 230.773L376.569 230.35C375.967 230.364 375.381 230.157 374.921 229.767C374.462 229.378 374.161 228.834 374.076 228.237C373.986 226.995 374.144 225.747 374.54 224.567C375.24 222.879 376.28 221.353 377.593 220.083C378.907 218.814 380.468 217.827 382.179 217.185Z" fill="#E51D04"/>
<path d="M385.949 219.604C386.052 219.511 386.184 219.456 386.323 219.449C386.462 219.442 386.599 219.484 386.71 219.568C387.746 220.379 388.441 221.547 388.659 222.845C388.969 224.34 388.91 225.889 388.486 227.356C388.336 227.887 387.998 228.221 387.641 228.207L383.9 228.064C383.447 228.047 383.093 227.473 383.08 226.729C383.065 225.946 383.132 225.163 383.28 224.393C383.585 222.535 384.529 220.841 385.949 219.604Z" fill="#C70A02"/>
<path d="M226.589 217.128C224.232 219.629 221.115 221.282 217.722 221.83C216.828 220.829 215.954 219.828 215.053 218.804C211.893 215.21 208.712 211.592 205.539 207.995C207.137 204.161 209.831 200.885 213.284 198.578C217.385 195.918 222.276 194.749 227.136 195.264C227.27 195.514 227.42 195.761 227.537 196.008C229.536 199.21 230.516 202.944 230.347 206.716C230.177 210.487 228.867 214.118 226.589 217.128Z" fill="#D49D3A"/>
<path d="M226.589 217.128C224.232 219.629 221.115 221.282 217.722 221.83C216.828 220.829 215.954 219.828 215.053 218.804C214.889 215.781 215.263 212.753 216.157 209.86C217.999 204.062 221.782 199.076 226.869 195.741C227.096 195.818 227.306 195.911 227.537 196.008C229.536 199.211 230.516 202.944 230.347 206.716C230.177 210.487 228.867 214.118 226.589 217.128Z" fill="#E3AB4A"/>
<path d="M205.545 207.995L216.164 209.86C218.98 215.59 219.554 220.539 217.722 221.83C215.67 223.289 210.878 219.978 208.592 218.396C206.306 216.815 204.631 215.617 204.164 213.414C204.021 212.465 204.07 211.496 204.307 210.565C204.544 209.634 204.965 208.76 205.545 207.995Z" fill="#BF4D04"/>
<path d="M426.825 218.343C425.588 219.656 423.951 220.523 422.17 220.809C421.699 220.282 421.242 219.751 420.772 219.224C419.103 217.335 417.435 215.437 415.766 213.551C416.606 211.539 418.021 209.82 419.834 208.609C421.987 207.213 424.554 206.599 427.105 206.87C427.175 207.001 427.256 207.131 427.316 207.257C428.365 208.938 428.879 210.897 428.792 212.876C428.704 214.856 428.018 216.762 426.825 218.343Z" fill="#D49D3A"/>
<path d="M426.825 218.343C425.588 219.656 423.951 220.523 422.17 220.809C421.699 220.282 421.242 219.751 420.772 219.224C420.685 217.637 420.882 216.047 421.352 214.529C422.319 211.485 424.304 208.868 426.975 207.117C427.095 207.157 427.205 207.204 427.309 207.254C428.36 208.934 428.876 210.894 428.789 212.874C428.703 214.854 428.018 216.761 426.825 218.343Z" fill="#E3AB4A"/>
<path d="M415.776 213.548L421.352 214.529C422.831 217.532 423.131 220.128 422.17 220.809C421.092 221.577 418.576 219.838 417.378 219.007C416.18 218.176 415.296 217.549 415.042 216.394C414.969 215.895 414.996 215.386 415.122 214.897C415.249 214.408 415.471 213.95 415.776 213.548Z" fill="#BF4D04"/>
<path d="M334.352 115.378C334.255 118.741 333.661 122.071 332.59 125.259C331.733 125.144 330.868 125.107 330.004 125.149C326.457 125.349 325.999 126.884 322.546 127.699C321.36 127.982 320.137 128.079 318.922 127.986C316.648 124.014 315.164 119.64 314.55 115.105C313.938 111.101 314.211 107.012 315.351 103.125C317.847 104.74 320.763 105.587 323.736 105.56C326.709 105.533 329.609 104.634 332.076 102.974C333.666 106.913 334.44 111.132 334.352 115.378Z" fill="#B85E19"/>
<path d="M332.083 102.978C329.615 104.638 326.715 105.537 323.741 105.563C320.767 105.59 317.851 104.743 315.354 103.128C316.039 101.002 317.422 99.1699 319.279 97.9289C321.231 96.6606 323.603 96.2078 325.886 96.6675C327.332 97.1774 328.642 98.011 329.716 99.1047C330.79 100.198 331.599 101.523 332.083 102.978Z" fill="#D49D3A"/>
<path d="M323.55 103.382C326.21 103.382 328.366 102.406 328.366 101.203C328.366 99.9991 326.21 99.0235 323.55 99.0235C320.891 99.0235 318.735 99.9991 318.735 101.203C318.735 102.406 320.891 103.382 323.55 103.382Z" fill="#853C07"/>
<path d="M315.351 218.239C315.253 221.602 314.66 224.932 313.589 228.12C312.732 228.003 311.866 227.965 311.003 228.007C307.455 228.207 306.978 229.742 303.544 230.556C302.359 230.84 301.136 230.937 299.92 230.843C297.647 226.872 296.162 222.498 295.549 217.962C294.937 213.959 295.21 209.869 296.35 205.983C298.846 207.598 301.762 208.445 304.735 208.418C307.708 208.391 310.608 207.492 313.075 205.832C314.663 209.772 315.437 213.993 315.351 218.239Z" fill="#B85E19"/>
<path d="M313.082 205.836C310.614 207.495 307.714 208.394 304.74 208.421C301.766 208.448 298.85 207.601 296.353 205.986C297.038 203.861 298.421 202.03 300.277 200.79C302.229 199.518 304.602 199.064 306.885 199.525C308.33 200.036 309.64 200.869 310.714 201.963C311.788 203.057 312.598 204.381 313.082 205.836Z" fill="#D49D3A"/>
<path d="M304.549 206.243C307.208 206.243 309.364 205.267 309.364 204.064C309.364 202.86 307.208 201.885 304.549 201.885C301.889 201.885 299.734 202.86 299.734 204.064C299.734 205.267 301.889 206.243 304.549 206.243Z" fill="#853C07"/>
<path d="M148.555 143.6C148.445 145.969 147.845 148.289 146.793 150.414C145.934 150.333 145.07 150.307 144.207 150.337C141.676 150.71 139.181 151.297 136.749 152.093C135.553 152.291 134.339 152.358 133.128 152.293C130.946 149.747 129.442 146.691 128.753 143.41C128.139 140.64 128.42 137.747 129.554 135.147C132.202 136.272 135.052 136.843 137.929 136.825C140.806 136.808 143.649 136.201 146.283 135.044C147.836 137.623 148.624 140.59 148.555 143.6Z" fill="#B85E19"/>
<path d="M146.286 135.044C143.653 136.203 140.811 136.811 137.934 136.829C135.057 136.847 132.207 136.274 129.561 135.147C130.406 133.529 131.794 132.26 133.482 131.563C135.562 130.664 137.851 130.363 140.092 130.692C141.376 130.931 142.594 131.443 143.662 132.194C144.731 132.945 145.626 133.917 146.286 135.044Z" fill="#D49D3A"/>
<path d="M137.753 135.327C140.413 135.327 142.568 134.653 142.568 133.822C142.568 132.991 140.413 132.317 137.753 132.317C135.094 132.317 132.938 132.991 132.938 133.822C132.938 134.653 135.094 135.327 137.753 135.327Z" fill="#853C07"/>
<path d="M215.52 172.996C208.365 160.679 211.255 144.084 218.814 132.811C223.951 125.524 231.149 119.937 239.483 116.768C247.817 113.598 256.907 112.99 265.589 115.021C272.332 121.958 277.501 130.267 280.743 139.382C285.493 153.225 285.727 168.218 281.41 182.203C254.9 197.653 225.638 190.419 215.52 172.996Z" fill="#FFB01B"/>
<path d="M377.483 148.832C376.318 146.442 375.818 143.783 376.036 141.133C376.253 138.483 377.18 135.94 378.718 133.772C380.643 131.04 383.339 128.945 386.463 127.755C389.586 126.566 392.993 126.337 396.248 127.098C398.774 129.7 400.709 132.816 401.921 136.235C403.7 141.423 403.786 147.042 402.168 152.283C392.243 158.076 381.274 155.363 377.483 148.832Z" fill="#FFB01B"/>
<path d="M327.638 187.105C347.102 187.105 362.88 175.568 362.88 161.336C362.88 147.105 347.102 135.568 327.638 135.568C308.174 135.568 292.395 147.105 292.395 161.336C292.395 175.568 308.174 187.105 327.638 187.105Z" fill="#F7D316"/>
<path d="M327.638 184.819C345.373 184.819 359.75 174.306 359.75 161.336C359.75 148.367 345.373 137.854 327.638 137.854C309.903 137.854 295.525 148.367 295.525 161.336C295.525 174.306 309.903 184.819 327.638 184.819Z" fill="#F5F164"/>
<path d="M327.825 157.802C326.68 157.802 325.719 157.409 325.582 156.885L321.838 142.579C321.738 142.195 322.102 141.814 322.793 141.577C324.284 141.122 325.832 140.878 327.391 140.853C329.238 140.8 331.082 141.046 332.85 141.581C333.545 141.798 333.908 142.182 333.805 142.565C332.561 147.335 331.314 152.103 330.064 156.868C329.934 157.409 328.966 157.802 327.825 157.802Z" fill="#F7D316"/>
<path d="M327.825 165.621C326.68 165.621 325.719 166.015 325.582 166.539L321.838 180.845C321.738 181.229 322.102 181.609 322.793 181.826C324.283 182.285 325.832 182.53 327.391 182.553C329.238 182.606 331.082 182.359 332.85 181.822C333.545 181.605 333.908 181.225 333.805 180.841C332.561 176.072 331.314 171.304 330.064 166.539C329.934 166.015 328.966 165.621 327.825 165.621Z" fill="#F7D316"/>
<path d="M332.677 160.075C332.2 159.317 332.286 158.513 332.88 158.203L349.082 149.73C349.348 149.624 349.637 149.589 349.921 149.628C350.206 149.666 350.475 149.777 350.703 149.95C351.813 150.676 352.772 151.61 353.527 152.7C354.348 153.854 354.827 155.217 354.908 156.631C354.931 156.878 354.859 157.124 354.706 157.319C354.554 157.513 354.332 157.642 354.087 157.679L334.756 161.179C334.341 161.207 333.926 161.118 333.559 160.923C333.192 160.728 332.886 160.434 332.677 160.075Z" fill="#F7D316"/>
<path d="M322.969 163.349C322.761 162.989 322.455 162.694 322.088 162.499C321.72 162.304 321.306 162.215 320.89 162.244L301.556 165.744C301.311 165.78 301.089 165.908 300.935 166.103C300.782 166.297 300.709 166.543 300.731 166.789C300.79 167.976 301.142 169.129 301.756 170.146C302.553 171.481 303.644 172.617 304.946 173.466C305.173 173.642 305.442 173.756 305.727 173.795C306.012 173.834 306.302 173.798 306.568 173.69L322.766 165.221C323.36 164.907 323.447 164.106 322.969 163.349Z" fill="#F7D316"/>
<path d="M332.27 163.906C332.546 163.579 332.902 163.328 333.304 163.18C333.706 163.031 334.139 162.989 334.562 163.058L352.886 168.775C353.001 168.807 353.108 168.862 353.2 168.937C353.293 169.012 353.369 169.106 353.423 169.211C353.478 169.317 353.511 169.433 353.519 169.552C353.527 169.671 353.51 169.79 353.47 169.903C353.142 171.087 352.545 172.18 351.725 173.096C350.646 174.32 349.328 175.31 347.85 176.003C347.602 176.15 347.319 176.23 347.03 176.235C346.741 176.241 346.456 176.171 346.202 176.033L332.063 165.778C331.529 165.391 331.602 164.573 332.27 163.906Z" fill="#F7D316"/>
<path d="M323.387 159.528C324.024 158.837 324.114 158.033 323.597 157.659L309.454 147.401C309.201 147.263 308.915 147.193 308.626 147.198C308.337 147.203 308.055 147.284 307.806 147.431C306.544 148.021 305.397 148.829 304.415 149.817C303.361 150.839 302.596 152.121 302.196 153.534C302.155 153.646 302.138 153.766 302.145 153.885C302.152 154.004 302.184 154.12 302.239 154.226C302.293 154.332 302.369 154.425 302.462 154.501C302.555 154.576 302.662 154.631 302.777 154.662L321.094 160.375C321.517 160.446 321.951 160.405 322.353 160.256C322.755 160.107 323.111 159.856 323.387 159.528Z" fill="#F7D316"/>
</svg>
