<svg width="180" height="180" viewBox="0 0 180 180" fill="none" xmlns="http://www.w3.org/2000/svg">
<path d="M66.8436 56.4617C46.5272 56.5117 29.7614 65.7352 27.1268 77.6479C27.1853 77.8459 27.2457 78.0504 27.3062 78.2549C30.4402 89.8545 47.0209 98.671 66.9801 98.6262C86.9393 98.5814 103.473 89.6633 106.548 78.0509C106.602 77.8481 106.655 77.6388 106.697 77.44C103.969 65.5409 87.1581 56.4052 66.8436 56.4617ZM81.8892 73.8959C81.8923 74.1779 81.8724 74.4597 81.8297 74.7385C81.1451 79.3887 74.7282 83.0428 66.9146 83.0635C59.1011 83.0843 52.656 79.4579 51.9515 74.8165C51.9106 74.5375 51.8897 74.256 51.889 73.974C51.885 73.765 51.895 73.5559 51.9192 73.3482C51.8941 73.142 51.8831 72.9343 51.8862 72.7266C51.8898 71.8593 52.0881 71.0039 52.4665 70.2235C54.2482 66.3969 60.0244 63.585 66.8844 63.5663C73.7444 63.5476 79.5327 66.335 81.3345 70.15C81.7 70.9325 81.8862 71.7867 81.8798 72.6504C81.8817 72.8594 81.8716 73.0684 81.8495 73.2763C81.876 73.4818 81.8893 73.6887 81.8892 73.8959Z" fill="#DDA94E"/>
<path d="M81.8889 73.8959C81.892 74.1779 81.872 74.4597 81.8294 74.7385C81.1447 79.3887 74.7279 83.0428 66.9143 83.0635C59.1007 83.0843 52.6557 79.4579 51.9511 74.8165C51.9102 74.5375 51.8894 74.256 51.8887 73.974C51.8846 73.765 51.8947 73.5559 51.9189 73.3482C51.936 73.4196 51.9568 73.49 51.9813 73.5593C52.6858 78.2007 59.1224 81.8224 66.9445 81.8063C74.7666 81.7903 81.175 78.1315 81.8596 73.4813C81.8731 73.4056 81.88 73.3318 81.8888 73.2646C81.9026 73.4748 81.9026 73.6857 81.8889 73.8959Z" fill="#CB9A4B"/>
<path d="M81.8795 72.6504C81.8815 72.8594 81.8713 73.0684 81.8493 73.2763C81.7649 72.6287 81.5787 71.9985 81.2974 71.4091C79.4956 67.5942 73.7074 64.8067 66.8474 64.8254C59.9874 64.8441 54.2112 67.656 52.4295 71.4827C52.1519 72.0734 51.9728 72.7055 51.8992 73.354C51.8741 73.1478 51.863 72.9401 51.8662 72.7324C51.8751 71.8616 52.0802 71.0041 52.4662 70.2235C54.2479 66.3969 60.0242 63.585 66.8842 63.5663C73.7442 63.5476 79.5324 66.335 81.3343 70.15C81.6997 70.9325 81.886 71.7867 81.8795 72.6504Z" fill="#CB9A4B"/>
<path d="M106.839 76.609C106.794 76.8948 106.739 77.1694 106.67 77.4478C103.969 65.5409 87.1581 56.4053 66.8436 56.4618C46.5291 56.5183 29.7613 65.7353 27.1267 77.648C27.0468 77.3775 26.9998 77.0972 26.9529 76.817C28.9894 64.5071 46.0595 54.8564 66.8419 54.8051C87.6242 54.7538 104.745 64.3072 106.839 76.609Z" fill="#EAB259"/>
<path d="M107.046 79.1086C107.087 92.598 89.1643 103.562 66.9466 103.636C44.729 103.71 26.7704 92.8042 26.7578 79.3136C26.7539 78.4775 26.819 77.6424 26.9525 76.8169C29.0438 89.1121 46.1709 98.6853 66.9533 98.634C87.7356 98.5827 104.804 88.9254 106.838 76.6089C106.977 77.435 107.046 78.2711 107.046 79.1086Z" fill="#CB9A4B"/>
<path d="M103.562 73.725C103.671 73.6814 103.792 73.6734 103.906 73.702C105.482 74.0327 106.138 73.8027 105.765 73.0019C105.742 72.9227 105.68 72.7116 105.531 72.3538C104.299 69.131 97.7469 54.9975 67.4963 54.7622C34.1578 54.4926 31.9299 66.2278 27.6343 71.3067C26.6685 72.5431 26.1108 74.0492 26.0384 75.6165C25.8379 78.409 26.8664 81.3549 29.1849 82.4273C32.8445 84.1293 37.801 80.6557 38.5574 83.4093C38.64 83.7305 38.6913 84.0589 38.7109 84.3899C38.7864 85.4221 38.6615 86.6499 38.6149 87.8761L38.6266 87.9157C38.5518 90.09 38.7624 92.2589 40.9263 93.2694C44.6818 95.0291 51.3475 89.838 53.3 90.1577C55.2526 90.4773 58.5309 98.3899 62.2999 99.1269C66.0689 99.8639 65.7911 90.5983 67.5756 89.7911C69.3601 88.9839 78.3267 98.0347 81.2775 96.9259C84.2283 95.817 82.912 87.6977 83.5549 86.7903C84.1978 85.8829 95.0462 91.4218 96.5003 88.7682C97.9543 86.1145 96.1856 83.5524 100.246 84.7413C104.306 85.9303 105.206 80.6714 104.941 79.0492C104.71 77.561 102.756 74.1065 103.562 73.725ZM55.6591 70.5641C55.6527 67.7753 61.1256 65.4906 67.8723 65.4767C74.6189 65.4628 80.097 67.7106 80.1088 70.4692C80.1106 70.711 80.0698 70.9513 79.9885 71.179C80.0643 71.3984 80.1056 71.6282 80.1109 71.8603C80.1107 74.651 74.651 76.9318 67.8977 76.9476C61.1445 76.9635 55.673 74.7137 55.6612 71.9552C55.66 71.7166 55.699 71.4795 55.7768 71.2539C55.6985 71.0323 55.6588 70.799 55.6591 70.5641Z" fill="#F38EBB"/>
<path d="M80.0815 70.8145C80.0608 70.9488 80.0278 71.081 79.983 71.2094C79.1602 68.7408 74.0483 66.8583 67.8821 66.8943C61.7159 66.9304 56.5926 68.7961 55.7864 71.287C55.7355 71.1637 55.6976 71.0354 55.6733 70.9043C56.0216 68.2474 61.341 66.1229 67.8834 66.0977C74.4258 66.0724 79.7135 68.1612 80.0815 70.8145Z" fill="#E080AD"/>
<path d="M80.1034 70.4995C80.107 70.6049 80.0997 70.7105 80.0816 70.8144C79.7136 68.1612 74.3681 66.0464 67.8711 66.0797C61.3741 66.1131 56.0357 68.2217 55.661 70.8864C55.6415 70.7827 55.632 70.6774 55.6327 70.5719C55.6263 67.7831 61.0992 65.4985 67.8458 65.4846C74.5925 65.4707 80.097 67.7107 80.1034 70.4995Z" fill="#F38EBB"/>
<path d="M47.6349 69.9224C47.4489 69.9225 47.2678 69.8629 47.1183 69.7522C46.5004 69.3253 45.7789 69.0727 45.0297 69.0208C44.322 69.1013 43.6249 69.2568 42.9501 69.4847C42.8386 69.5318 42.7187 69.5551 42.5977 69.5534C42.4768 69.5517 42.3575 69.5249 42.2475 69.4746C42.1374 69.4244 42.039 69.3519 41.9585 69.2617C41.8779 69.1714 41.817 69.0655 41.7796 68.9505C41.7421 68.8355 41.7289 68.714 41.7408 68.5936C41.7528 68.4733 41.7896 68.3567 41.8489 68.2513C41.9082 68.1459 41.9887 68.0539 42.0854 67.9813C42.1821 67.9086 42.2928 67.8568 42.4105 67.8292C43.2756 67.5484 44.1689 67.3638 45.0744 67.2786C46.19 67.3346 47.2664 67.7085 48.1764 68.3562C48.3332 68.4611 48.4514 68.6143 48.5133 68.7925C48.5751 68.9708 48.577 69.1643 48.5189 69.3438C48.4608 69.5232 48.3457 69.6788 48.1912 69.7869C48.0366 69.8951 47.851 69.9498 47.6625 69.9429L47.6349 69.9224Z" fill="#8E542D"/>
<path d="M45.4198 65.5338C45.2322 65.534 45.0497 65.4718 44.9013 65.357C44.281 64.9327 43.558 64.683 42.808 64.6341C42.1003 64.7147 41.4032 64.8702 40.7284 65.0981C40.617 65.1451 40.497 65.1685 40.3761 65.1667C40.2551 65.165 40.1359 65.1382 40.0259 65.088C39.9158 65.0377 39.8174 64.9652 39.7369 64.875C39.6564 64.7848 39.5954 64.6788 39.5579 64.5638C39.5204 64.4488 39.5072 64.3273 39.5191 64.207C39.5311 64.0866 39.5679 63.97 39.6272 63.8646C39.6865 63.7592 39.767 63.6673 39.8637 63.5946C39.9604 63.522 40.0712 63.4701 40.1889 63.4425C41.054 63.1617 41.9473 62.9771 42.8527 62.892C43.9664 62.9497 45.041 63.321 45.9528 63.963C46.1047 64.0706 46.2183 64.2239 46.277 64.4006C46.3356 64.5773 46.3363 64.7681 46.279 64.9452C46.2216 65.1223 46.1091 65.2765 45.958 65.3852C45.8069 65.4939 45.625 65.5515 45.4389 65.5497L45.4198 65.5338Z" fill="#E76924"/>
<path d="M86.9875 66.7504C86.8 66.7493 86.6173 66.6906 86.4643 66.5822C85.8476 66.1528 85.1255 65.8999 84.3757 65.8508C83.6658 65.9317 82.9664 66.0879 82.2895 66.3167C82.0762 66.3656 81.8523 66.3327 81.6621 66.2246C81.4719 66.1164 81.3293 65.9408 81.2623 65.7325C81.1953 65.5242 81.2089 65.2983 81.3004 65.0996C81.3919 64.9009 81.5547 64.7437 81.7565 64.6592C82.6216 64.3784 83.515 64.1937 84.4204 64.1086C85.5355 64.1672 86.6111 64.5409 87.5223 65.1862C87.6791 65.2911 87.7974 65.4443 87.8592 65.6225C87.921 65.8008 87.923 65.9943 87.8649 66.1737C87.8068 66.3532 87.6917 66.5088 87.5372 66.6169C87.3826 66.725 87.197 66.7798 87.0084 66.7729L86.9875 66.7504Z" fill="#5B9741"/>
<path d="M89.0889 84.3728C88.9278 84.2777 88.8004 84.1348 88.7242 83.964C88.3982 83.286 87.8954 82.7084 87.2688 82.2922C86.6159 82.0077 85.933 81.798 85.2331 81.6671C85.1136 81.6516 84.9987 81.6116 84.8954 81.5496C84.7922 81.4876 84.7029 81.4049 84.6331 81.3067C84.5633 81.2085 84.5146 81.097 84.49 80.9791C84.4654 80.8612 84.4654 80.7395 84.4901 80.6216C84.5147 80.5037 84.5636 80.3922 84.6334 80.294C84.7032 80.1959 84.7925 80.1132 84.8958 80.0513C84.9991 79.9893 85.1141 79.9494 85.2335 79.934C85.353 79.9186 85.4744 79.928 85.59 79.9618C86.4799 80.1433 87.3459 80.4266 88.1711 80.8059C89.1132 81.4046 89.8642 82.2606 90.3349 83.2728C90.4004 83.4402 90.4127 83.6237 90.3701 83.7983C90.3275 83.9729 90.232 84.1301 90.0968 84.2486C89.9616 84.367 89.7931 84.4408 89.6144 84.46C89.4357 84.4791 89.2554 84.4427 89.0982 84.3557L89.0889 84.3728Z" fill="#5B9741"/>
<path d="M60.0752 61.5971C59.9825 61.5434 59.9085 61.4626 59.8633 61.3656C59.6787 60.9789 59.3929 60.6494 59.0362 60.412C58.6613 60.2435 58.2682 60.1189 57.8648 60.0408C57.799 60.0279 57.7366 60.0019 57.6813 59.9643C57.6259 59.9266 57.5788 59.8781 57.5426 59.8218C57.5065 59.7654 57.4822 59.7023 57.4712 59.6362C57.4601 59.5702 57.4627 59.5026 57.4785 59.4375C57.4896 59.371 57.5144 59.3074 57.5514 59.251C57.5883 59.1945 57.6365 59.1463 57.693 59.1093C57.7495 59.0724 57.813 59.0476 57.8796 59.0365C57.9462 59.0253 58.0143 59.0281 58.0798 59.0446C58.5883 59.1503 59.0835 59.3119 59.5565 59.5264C60.0885 59.878 60.5106 60.3723 60.7744 60.9528C60.8179 61.0488 60.8296 61.1561 60.808 61.2591C60.7864 61.3622 60.7325 61.4557 60.6541 61.526C60.5757 61.5964 60.477 61.6399 60.3721 61.6503C60.2673 61.6607 60.162 61.6375 60.0713 61.5839L60.0752 61.5971Z" fill="#E76924"/>
<path d="M54.7811 66.1388C54.6863 66.0879 54.6115 66.0063 54.5691 65.9073C54.3833 65.5191 54.0971 65.1876 53.7401 64.9471C53.3642 64.7813 52.9714 64.6569 52.5687 64.5759C52.437 64.548 52.3218 64.469 52.2482 64.3563C52.1745 64.2437 52.1485 64.1064 52.1758 63.9746C52.1886 63.9089 52.2147 63.8465 52.2523 63.7911C52.29 63.7357 52.3384 63.6886 52.3948 63.6525C52.4512 63.6163 52.5143 63.5921 52.5803 63.581C52.6463 63.57 52.714 63.5725 52.779 63.5883C53.2904 63.6901 53.7883 63.8511 54.2624 64.0682C54.7992 64.4138 55.2275 64.9039 55.4981 65.4821C55.5369 65.5778 55.5452 65.6832 55.522 65.7838C55.4987 65.8844 55.4449 65.9755 55.3681 66.0445C55.2912 66.1134 55.195 66.157 55.0924 66.1693C54.9899 66.1816 54.886 66.162 54.795 66.1132L54.7811 66.1388Z" fill="#E76924"/>
<path d="M52.9629 60.1551C52.8575 60.1488 52.7557 60.1145 52.668 60.0557C52.3125 59.8112 51.8982 59.6662 51.4678 59.6356C51.0621 59.6798 50.6626 59.769 50.2766 59.9016C50.1505 59.9408 50.0141 59.9287 49.8968 59.8681C49.7795 59.8074 49.6908 59.703 49.6499 59.5774C49.6297 59.5156 49.6219 59.4503 49.627 59.3854C49.632 59.3205 49.6497 59.2573 49.6792 59.1993C49.7087 59.1413 49.7494 59.0896 49.7989 59.0473C49.8483 59.005 49.9056 58.9728 49.9675 58.9527C50.4628 58.7883 50.9757 58.6825 51.4957 58.6374C52.1329 58.6741 52.7474 58.8875 53.2704 59.2535C53.3737 59.3327 53.4417 59.4494 53.4597 59.5783C53.4777 59.7073 53.4441 59.8381 53.3664 59.9426C53.3203 60.0069 53.2598 60.0596 53.1898 60.0965C53.1197 60.1334 53.042 60.1535 52.9629 60.1551Z" fill="#5B9741"/>
<path d="M72.8373 59.339C72.9227 59.2743 72.9841 59.1829 73.0117 59.0794C73.1392 58.6699 73.3753 58.3027 73.6948 58.0166C74.0401 57.7997 74.4092 57.6232 74.7948 57.4907C74.856 57.468 74.9121 57.4335 74.9599 57.3891C75.0077 57.3448 75.0463 57.2913 75.0735 57.232C75.1006 57.1726 75.1157 57.1085 75.118 57.0433C75.1202 56.9781 75.1097 56.9131 75.0867 56.852C75.0408 56.7279 74.9477 56.6269 74.8278 56.571C74.7078 56.5151 74.5707 56.5088 74.4461 56.5535C73.9597 56.7342 73.4947 56.9678 73.0594 57.2503C72.5801 57.6716 72.2273 58.218 72.0407 58.8283C72.0068 58.9564 72.025 59.0928 72.0912 59.2076C72.1574 59.3224 72.2662 59.4064 72.3941 59.4413C72.4707 59.4615 72.5511 59.4627 72.6283 59.4449C72.7056 59.4271 72.7773 59.3907 72.8373 59.339Z" fill="#5156A5"/>
<path d="M67.0672 62.6801C67.0694 62.5722 67.11 62.4686 67.1817 62.388C67.4423 62.0467 67.6099 61.6437 67.6682 61.2183C67.65 60.8127 67.5864 60.4103 67.4787 60.0189C67.4415 59.8929 67.4559 59.7572 67.5186 59.6418C67.5814 59.5264 67.6874 59.4407 67.8134 59.4034C67.9393 59.3662 68.075 59.3805 68.1904 59.4433C68.3058 59.506 68.3915 59.6121 68.4288 59.7381C68.5657 60.2405 68.6415 60.7577 68.6545 61.2784C68.588 61.9126 68.3398 62.5141 67.9397 63.0105C67.8544 63.1101 67.7336 63.1725 67.6031 63.1843C67.4725 63.1961 67.3425 63.1563 67.2409 63.0735C67.1834 63.0259 67.1378 62.9656 67.1077 62.8973C67.0776 62.829 67.0636 62.7547 67.0672 62.6801Z" fill="#5156A5"/>
<path d="M64.2744 59.2012C64.1835 59.1453 64.1102 59.0651 64.0625 58.9697C63.8742 58.5848 63.5843 58.2587 63.2242 58.0265C62.8466 57.8597 62.4515 57.7358 62.0462 57.6573C61.9169 57.6318 61.8029 57.5559 61.7295 57.4465C61.6562 57.337 61.6293 57.2028 61.6548 57.0735C61.6803 56.9442 61.7561 56.8303 61.8656 56.7569C61.9751 56.6835 62.1093 56.6566 62.2386 56.6822C62.7499 56.7803 63.2485 56.9362 63.7246 57.1469C64.2646 57.4886 64.6987 57.9739 64.9782 58.5484C65.0188 58.6442 65.0286 58.7502 65.0063 58.8519C64.984 58.9535 64.9306 59.0456 64.8537 59.1156C64.7767 59.1856 64.6798 59.23 64.5765 59.2426C64.4733 59.2553 64.3687 59.2355 64.2771 59.186L64.2744 59.2012Z" fill="#8E542D"/>
<path d="M79.4158 60.989C79.5348 60.9382 79.6346 60.8509 79.7009 60.7398C79.9732 60.294 80.362 59.9311 80.8254 59.69C81.2995 59.5471 81.7882 59.4581 82.2822 59.4245C82.3616 59.4175 82.4389 59.3949 82.5096 59.3581C82.5803 59.3212 82.643 59.2708 82.6943 59.2097C82.7455 59.1486 82.7842 59.078 82.8082 59.002C82.8321 58.9259 82.8408 58.8459 82.8339 58.7665C82.8269 58.687 82.8043 58.6098 82.7674 58.5391C82.7306 58.4683 82.6802 58.4056 82.6191 58.3544C82.558 58.3031 82.4874 58.2645 82.4113 58.2405C82.3353 58.2166 82.2552 58.2079 82.1758 58.2148C81.5451 58.2681 80.9223 58.392 80.3193 58.5842C79.6198 58.9234 79.0304 59.4532 78.6188 60.1126C78.5774 60.1811 78.55 60.2572 78.5382 60.3364C78.5264 60.4155 78.5305 60.4962 78.5501 60.5738C78.5697 60.6514 78.6044 60.7244 78.6524 60.7885C78.7003 60.8525 78.7605 60.9064 78.8295 60.9471C78.9161 61.0021 79.015 61.0348 79.1174 61.0421C79.2197 61.0494 79.3223 61.0312 79.4158 60.989Z" fill="#8E542D"/>
<path d="M53.7197 85.8728C53.8506 85.7393 53.9331 85.5659 53.9542 85.3802C54.0852 84.6395 54.4102 83.9469 54.8962 83.3728C55.4525 82.9159 56.0582 82.5227 56.702 82.2007C56.8031 82.1473 56.8926 82.0745 56.9655 81.9864C57.0384 81.8984 57.0932 81.7969 57.1269 81.6877C57.1606 81.5785 57.1725 81.4637 57.1618 81.3499C57.1511 81.2362 57.1181 81.1256 57.0647 81.0246C57.0112 80.9235 56.9385 80.834 56.8504 80.7611C56.7624 80.6882 56.661 80.6333 56.5517 80.5997C56.4425 80.566 56.3277 80.5542 56.2139 80.5648C56.1001 80.5755 55.9896 80.6085 55.8886 80.6619C55.0814 81.0811 54.3247 81.5912 53.6332 82.1822C52.8955 83.021 52.4116 84.0522 52.2379 85.1557C52.215 85.3371 52.2495 85.5211 52.3367 85.6819C52.4239 85.8426 52.5594 85.9719 52.7239 86.0516C52.8885 86.1313 53.0739 86.1574 53.2541 86.1262C53.4342 86.0949 53.6001 86.0079 53.7282 85.8774L53.7197 85.8728Z" fill="#8E542D"/>
<path d="M33.1195 76.0778C33.2979 76.0225 33.4537 75.911 33.5636 75.76C34.017 75.163 34.6244 74.7008 35.3207 74.4229C36.0108 74.2861 36.7135 74.2227 37.417 74.2338C37.531 74.234 37.644 74.2117 37.7495 74.1683C37.8549 74.1248 37.9508 74.061 38.0316 73.9805C38.1124 73.9 38.1765 73.8044 38.2203 73.6991C38.2642 73.5938 38.2868 73.4809 38.287 73.3668C38.2873 73.2528 38.2651 73.1398 38.2216 73.0343C38.1782 72.9289 38.1144 72.833 38.0339 72.7522C37.9534 72.6714 37.8577 72.6073 37.7524 72.5634C37.6471 72.5196 37.5342 72.4969 37.4201 72.4967C36.5104 72.49 35.6028 72.5874 34.7151 72.7868C33.6727 73.1853 32.7635 73.8692 32.0916 74.7602C31.9573 74.9486 31.9031 75.1824 31.941 75.4106C31.9788 75.6388 32.1056 75.8427 32.2936 75.9775C32.4115 76.0628 32.5491 76.1167 32.6936 76.1342C32.838 76.1517 32.9846 76.1323 33.1195 76.0778Z" fill="#5B9741"/>
<path d="M96.2068 70.3961C96.0183 70.4014 95.8337 70.3421 95.6836 70.2279C95.0657 69.801 94.3443 69.5483 93.595 69.4964C92.8861 69.5696 92.1882 69.7253 91.5154 69.9604C91.404 70.0074 91.284 70.0308 91.1631 70.0291C91.0421 70.0273 90.9228 70.0005 90.8128 69.9503C90.7028 69.9001 90.6044 69.8275 90.5238 69.7373C90.4433 69.6471 90.3824 69.5411 90.3449 69.4261C90.3074 69.3111 90.2942 69.1896 90.3061 69.0693C90.3181 68.9489 90.3549 68.8323 90.4142 68.7269C90.4735 68.6215 90.554 68.5296 90.6507 68.4569C90.7474 68.3843 90.8581 68.3325 90.9758 68.3048C91.8399 68.0202 92.7337 67.8354 93.6397 67.7543C94.7551 67.8121 95.8317 68.1825 96.7464 68.8233C96.8382 68.8916 96.9155 68.9775 96.9739 69.0758C97.0324 69.1742 97.0708 69.2831 97.087 69.3964C97.1031 69.5097 97.0967 69.625 97.068 69.7358C97.0393 69.8466 96.989 69.9506 96.92 70.0418C96.8389 70.1544 96.7315 70.2455 96.6072 70.3073C96.483 70.369 96.3455 70.3995 96.2068 70.3961Z" fill="#5B9741"/>
<path d="M47.9962 80.9499C47.8332 81.0446 47.6444 81.0853 47.4568 81.0662C46.7083 81.0155 45.9602 81.1696 45.2928 81.5121C44.7236 81.9398 44.2043 82.4302 43.7448 82.974C43.6731 83.0717 43.5819 83.1534 43.4769 83.214C43.3719 83.2745 43.2555 83.3126 43.135 83.3257C43.0145 83.3388 42.8926 83.3268 42.7771 83.2903C42.6615 83.2538 42.5548 83.1936 42.4638 83.1136C42.3727 83.0336 42.2993 82.9356 42.2481 82.8257C42.197 82.7159 42.1693 82.5965 42.1667 82.4754C42.1642 82.3542 42.1869 82.2338 42.2334 82.1219C42.2799 82.01 42.3492 81.909 42.4368 81.8253C43.0348 81.1414 43.7073 80.5264 44.4417 79.9916C45.4313 79.4736 46.5464 79.2434 47.6602 79.3274C47.8419 79.3474 48.0126 79.4238 48.1485 79.5459C48.2844 79.668 48.3787 79.8296 48.4179 80.0081C48.4572 80.1865 48.4395 80.3728 48.3675 80.5407C48.2954 80.7086 48.1725 80.8496 48.016 80.944L47.9962 80.9499Z" fill="#5B9741"/>
<path d="M88.2026 62.1729C88.0705 62.1744 87.9417 62.1317 87.8367 62.0515C87.4023 61.7563 86.8976 61.5813 86.3738 61.544C85.8794 61.6019 85.3926 61.7121 84.9215 61.8728C84.8432 61.9076 84.7584 61.9255 84.6727 61.9255C84.5871 61.9255 84.5023 61.9075 84.424 61.8726C84.3457 61.8378 84.2757 61.7869 84.2183 61.7233C84.1609 61.6597 84.1175 61.5847 84.0909 61.5033C84.0643 61.4218 84.0551 61.3357 84.0639 61.2504C84.0727 61.1652 84.0992 61.0828 84.1419 61.0085C84.1845 60.9342 84.2422 60.8696 84.3114 60.819C84.3805 60.7684 84.4596 60.7329 84.5433 60.7148C85.1487 60.516 85.7746 60.3863 86.4091 60.3284C87.1893 60.37 87.9421 60.6298 88.582 61.0779C88.7108 61.1752 88.796 61.3195 88.8191 61.4792C88.8421 61.639 88.8012 61.8014 88.7051 61.9311C88.6468 62.0088 88.5708 62.0712 88.4833 62.1133C88.3959 62.1554 88.2996 62.1758 88.2026 62.1729Z" fill="#E76924"/>
<path d="M94.6497 64.7152C94.5181 64.7138 94.3903 64.6713 94.2839 64.5938C93.8509 64.296 93.3455 64.1206 92.8211 64.0863C92.3262 64.1416 91.8386 64.2496 91.3667 64.4085C91.2907 64.4339 91.2104 64.4439 91.1305 64.438C91.0505 64.432 90.9726 64.4103 90.9012 64.374C90.8298 64.3377 90.7662 64.2876 90.7143 64.2266C90.6623 64.1656 90.623 64.0949 90.5986 64.0186C90.5493 63.865 90.5627 63.6982 90.6357 63.5544C90.7087 63.4106 90.8355 63.3014 90.9885 63.2505C91.5939 63.0517 92.2198 62.9221 92.8544 62.8641C93.633 62.905 94.3841 63.1655 95.0207 63.6156C95.0855 63.6627 95.1403 63.7222 95.1819 63.7906C95.2235 63.859 95.2511 63.935 95.2632 64.0142C95.2753 64.0934 95.2715 64.1741 95.2521 64.2518C95.2327 64.3296 95.1981 64.4026 95.1503 64.4669C95.0926 64.545 95.0171 64.6083 94.9301 64.6515C94.843 64.6947 94.7469 64.7165 94.6497 64.7152Z" fill="#5156A5"/>
<path d="M46.3658 77.0124C46.5431 76.9524 46.6975 76.8391 46.808 76.688C47.2628 76.0932 47.8708 75.6333 48.5669 75.3575C49.2566 75.2175 49.9597 75.1541 50.6633 75.1684C50.894 75.1669 51.1148 75.0742 51.2774 74.9106C51.4401 74.7469 51.5314 74.5256 51.5315 74.2948C51.5319 74.1807 51.5098 74.0676 51.4664 73.9621C51.423 73.8565 51.3592 73.7606 51.2787 73.6798C51.1981 73.5989 51.1024 73.5348 50.997 73.491C50.8916 73.4472 50.7787 73.4247 50.6645 73.4247C49.7552 73.4209 48.8484 73.5205 47.9615 73.7214C46.9156 74.1135 46.0047 74.7986 45.338 75.6948C45.2296 75.8433 45.1712 76.0225 45.1713 76.2063C45.1713 76.3902 45.2299 76.5692 45.3385 76.7176C45.447 76.866 45.5999 76.9761 45.7751 77.0319C45.9503 77.0877 46.1387 77.0863 46.313 77.028L46.3658 77.0124Z" fill="#5156A5"/>
<path d="M94.6111 78.2498C94.7969 78.2557 94.9796 78.2016 95.1324 78.0958C95.7489 77.6629 96.4721 77.4069 97.2237 77.3557C97.9327 77.4325 98.6318 77.5842 99.3088 77.8084C99.4176 77.8431 99.532 77.8562 99.6458 77.8467C99.7595 77.8372 99.8703 77.8054 99.9717 77.7531C100.073 77.7008 100.163 77.629 100.237 77.5418C100.311 77.4547 100.367 77.3539 100.401 77.2452C100.436 77.1364 100.449 77.0219 100.44 76.9082C100.43 76.7944 100.398 76.6837 100.346 76.5822C100.294 76.4808 100.222 76.3906 100.135 76.3169C100.048 76.2432 99.9469 76.1873 99.8381 76.1526C98.9736 75.8726 98.0801 75.6915 97.1748 75.6125C96.0602 75.6797 94.9865 76.0567 94.0745 76.701C93.9828 76.7695 93.9055 76.8556 93.8473 76.9542C93.789 77.0528 93.7509 77.1619 93.7351 77.2753C93.7192 77.3887 93.726 77.5041 93.755 77.6149C93.784 77.7257 93.8347 77.8296 93.9041 77.9207C93.9869 78.0282 94.0944 78.1143 94.2175 78.1715C94.3405 78.2288 94.4755 78.2557 94.6111 78.2498Z" fill="#8E542D"/>
<path d="M77.4134 86.6683C77.2817 86.5335 77.1975 86.3594 77.1736 86.1724C77.0399 85.4332 76.712 84.7427 76.2236 84.1719C75.6765 83.7195 75.0801 83.3302 74.4458 83.0114C74.26 82.8944 74.125 82.7118 74.0678 82.4998C74.0105 82.2878 74.0351 82.062 74.1367 81.8674C74.2384 81.6728 74.4095 81.5235 74.6162 81.4494C74.8229 81.3753 75.05 81.3817 75.2522 81.4674C76.0545 81.8781 76.8084 82.3772 77.4998 82.9553C78.2447 83.7896 78.7357 84.8193 78.915 85.9232C78.9389 86.1042 78.9055 86.2882 78.8195 86.4492C78.7336 86.6103 78.5993 86.7403 78.4356 86.8212C78.2719 86.902 78.087 86.9295 77.9068 86.8999C77.7267 86.8702 77.5604 86.7849 77.4313 86.6559L77.4134 86.6683Z" fill="#8E542D"/>
<path d="M86.9942 75.8522C86.8133 75.7995 86.6558 75.6866 86.548 75.5321C86.0844 74.9399 85.4712 74.4821 84.7716 74.2062C84.0737 74.0671 83.3625 74.0054 82.6511 74.0222C82.5339 74.0273 82.4168 74.0087 82.307 73.9675C82.1971 73.9264 82.0966 73.8636 82.0115 73.7827C81.9265 73.7019 81.8586 73.6048 81.8119 73.4972C81.7652 73.3895 81.7406 73.2736 81.7397 73.1563C81.7387 73.0389 81.7614 72.9226 81.8064 72.8143C81.8514 72.7059 81.9177 72.6077 82.0015 72.5256C82.0852 72.4434 82.1847 72.3789 82.2939 72.336C82.4031 72.2932 82.5198 72.2727 82.6371 72.2759C83.546 72.2645 84.4531 72.36 85.3398 72.5604C86.386 72.953 87.3005 73.6326 87.9782 74.5211C88.0452 74.6139 88.0932 74.719 88.1194 74.8304C88.1456 74.9417 88.1494 75.0572 88.1307 75.1701C88.1121 75.283 88.0713 75.3911 88.0107 75.4881C87.95 75.5851 87.8707 75.6692 87.7775 75.7355C87.6663 75.8174 87.5368 75.8708 87.4003 75.8911C87.2638 75.9115 87.1244 75.8981 86.9942 75.8522Z" fill="#E76924"/>
<path d="M68.7455 85.471C68.5788 85.3819 68.4478 85.2383 68.3742 85.0642C68.0501 84.3873 67.5476 83.8116 66.9207 83.399C66.2648 83.1172 65.58 82.9082 64.8785 82.7758C64.6673 82.7142 64.4871 82.5751 64.3739 82.3865C64.2607 82.1978 64.2229 81.9734 64.2679 81.758C64.313 81.5427 64.4377 81.3522 64.617 81.2248C64.7964 81.0973 65.0171 81.0423 65.2353 81.0705C66.1261 81.2501 66.9936 81.5304 67.821 81.9061C68.7587 82.5134 69.5087 83.3699 69.9868 84.3796C70.0523 84.547 70.0647 84.7305 70.0221 84.9051C69.9795 85.0797 69.884 85.2369 69.7488 85.3553C69.6136 85.4737 69.4451 85.5476 69.2664 85.5667C69.0877 85.5859 68.9074 85.5495 68.7502 85.4625L68.7455 85.471Z" fill="#5156A5"/>
<path d="M114.12 78.1874C93.8054 78.2439 77.0376 87.4609 74.3964 99.3755C74.4569 99.5801 74.5173 99.7846 74.5778 99.9891C77.7099 111.582 94.2924 120.405 114.25 120.354C134.207 120.302 150.744 111.398 153.819 99.7851C153.872 99.5758 153.927 99.373 153.973 99.1657C151.255 87.2995 134.442 78.1573 114.12 78.1874ZM129.167 95.6282C129.164 95.91 129.144 96.1913 129.108 96.4708C128.421 101.114 122.006 104.775 114.184 104.791C106.362 104.807 99.9341 101.19 99.221 96.5441C99.18 96.2674 99.1598 95.988 99.1605 95.7083C99.1596 95.4984 99.172 95.2887 99.1974 95.0804C99.1667 94.8754 99.1535 94.6681 99.1577 94.4608C99.1565 93.5938 99.3496 92.7376 99.7229 91.9551C101.465 88.1401 107.279 85.3099 114.132 85.2932C120.986 85.2764 126.787 88.06 128.584 91.8835C128.958 92.6637 129.154 93.5174 129.158 94.3827C129.162 94.5896 129.152 94.7966 129.126 95.002C129.153 95.2163 129.169 95.432 129.173 95.648L129.167 95.6282Z" fill="#DDA94E"/>
<path d="M129.173 95.648C129.17 95.9297 129.15 96.2111 129.114 96.4905C128.427 101.134 122.012 104.795 114.19 104.811C106.368 104.827 99.9402 101.21 99.2271 96.5639C99.1861 96.2872 99.1659 96.0078 99.1666 95.728C99.1656 95.5182 99.178 95.3085 99.2034 95.1002L99.2243 95.3164C99.9374 99.9625 106.367 103.586 114.188 103.563C122.008 103.541 128.425 99.8867 129.111 95.2431L129.132 95.0217C129.156 95.2296 129.17 95.4386 129.173 95.648Z" fill="#CB9A4B"/>
<path d="M129.197 94.3926C129.202 94.5996 129.191 94.8066 129.165 95.012C129.084 94.3635 128.898 93.7328 128.613 93.1448C126.816 89.3213 121.021 86.5358 114.161 86.5545C107.301 86.5732 101.525 89.3851 99.7516 93.2164C99.4701 93.8078 99.2916 94.4428 99.2234 95.0943C99.1927 94.8892 99.1795 94.682 99.1837 94.4747C99.1825 93.6077 99.3755 92.7515 99.7488 91.9689C101.491 88.154 107.305 85.3238 114.158 85.307C121.012 85.2903 126.813 88.0739 128.61 91.8973C128.988 92.6754 129.189 93.5277 129.197 94.3926Z" fill="#CB9A4B"/>
<path d="M154.115 98.3563C154.068 98.6355 154.013 98.9101 153.951 99.1866C151.256 87.2995 134.443 78.1572 114.12 78.1874C93.7981 78.2175 77.0381 87.4608 74.3969 99.3755C74.317 99.105 74.2786 98.8294 74.2316 98.5491C76.2616 86.2412 93.3316 76.5906 114.112 76.5327C134.892 76.4747 152.021 86.0546 154.115 98.3563Z" fill="#EAB259"/>
<path d="M154.331 100.861C154.363 114.345 136.447 125.308 114.229 125.382C92.0117 125.455 74.0551 114.556 74.0425 101.066C74.0376 100.229 74.105 99.3925 74.2438 98.567C76.3352 110.862 93.4536 120.431 114.236 120.379C135.018 120.328 152.088 110.677 154.123 98.3609C154.261 99.187 154.33 100.023 154.331 100.861Z" fill="#CB9A4B"/>
<path d="M150.844 95.4704C150.953 95.4302 151.072 95.4252 151.184 95.456C152.758 95.78 153.416 95.5567 153.05 94.7539C153.026 94.6747 152.962 94.457 152.818 94.1407C151.586 90.9179 145.041 76.7825 114.79 76.5472C81.4454 76.2796 79.2155 88.0081 74.9199 93.087C73.9608 94.3272 73.4039 95.831 73.324 97.3968C73.1235 100.189 74.1519 103.135 76.4724 104.214C80.1366 105.908 85.0865 102.436 85.8515 105.194C85.933 105.513 85.9837 105.84 86.003 106.168C86.0719 107.202 85.9536 108.428 85.9005 109.656L85.9122 109.696C85.8374 111.87 86.0545 114.037 88.2118 115.05C91.979 116.849 98.6331 111.618 100.586 111.938C102.538 112.258 105.825 120.175 109.587 120.914C113.35 121.653 113.128 112.335 114.928 111.53C116.728 110.726 125.677 119.767 128.628 118.658C131.579 117.55 130.262 109.43 130.912 108.521C131.561 107.611 142.405 113.159 143.857 110.499C145.309 107.838 143.536 105.285 147.605 106.478C151.674 107.672 152.556 102.404 152.3 100.786C151.984 99.28 150.034 95.8605 150.844 95.4704ZM102.943 92.3161C102.935 89.5207 108.403 87.2446 115.148 87.2241C121.893 87.2036 127.373 89.458 127.385 92.2165C127.387 92.4552 127.348 92.6925 127.269 92.9178C127.343 93.138 127.383 93.3686 127.385 93.601C127.393 96.3964 121.925 98.6726 115.18 98.693C108.435 98.7135 102.947 96.4545 102.944 93.7006C102.945 93.461 102.986 93.2233 103.066 92.9973C102.987 92.7788 102.946 92.5485 102.943 92.3161Z" fill="#6B3C1B"/>
<path d="M127.359 92.5684C127.339 92.6995 127.307 92.8287 127.266 92.9548C126.436 90.4881 121.326 88.6122 115.158 88.6416C108.99 88.6711 103.875 90.5414 103.069 93.0323C103.021 92.9057 102.982 92.7755 102.954 92.643C103.309 89.9842 108.628 87.8597 115.166 87.843C121.704 87.8263 126.996 89.9066 127.359 92.5684Z" fill="#E080AD"/>
<path d="M127.381 92.2534C127.385 92.3589 127.378 92.4644 127.36 92.5683C126.996 89.9066 121.646 87.8003 115.156 87.8317C108.665 87.8631 103.318 89.9671 102.944 92.6318C102.926 92.5295 102.92 92.4257 102.924 92.322C102.916 89.5266 108.384 87.2505 115.129 87.23C121.873 87.2095 127.373 89.458 127.381 92.2534Z" fill="#F38EBB"/>
<path d="M94.9198 91.6744C94.7308 91.6727 94.5471 91.6115 94.3947 91.4996C93.7789 91.071 93.0569 90.8202 92.308 90.7747C91.6002 90.8548 90.9031 91.0103 90.2284 91.2387C90.1167 91.2855 89.9966 91.3085 89.8756 91.3064C89.7546 91.3043 89.6353 91.2771 89.5254 91.2264C89.4155 91.1758 89.3172 91.1029 89.237 91.0123C89.1567 90.9217 89.0961 90.8155 89.0591 90.7002C89.022 90.585 89.0093 90.4633 89.0218 90.3429C89.0342 90.2225 89.0716 90.1061 89.1314 90.0008C89.1912 89.8956 89.2722 89.804 89.3693 89.7318C89.4664 89.6595 89.5775 89.6082 89.6955 89.5812C90.5573 89.2972 91.4489 89.1132 92.3527 89.0326C93.468 89.0907 94.5445 89.4612 95.4594 90.1017C95.6113 90.2093 95.7249 90.3626 95.7836 90.5393C95.8422 90.7159 95.8429 90.9068 95.7856 91.0839C95.7282 91.261 95.6158 91.4151 95.4647 91.5239C95.3136 91.6326 95.1316 91.6902 94.9455 91.6883L94.9198 91.6744Z" fill="#8E542D"/>
<path d="M92.7024 87.2792C92.5139 87.2845 92.3293 87.2252 92.1792 87.111C91.5613 86.6841 90.8399 86.4314 90.0906 86.3795C89.3817 86.4527 88.6837 86.6085 88.0109 86.8435C87.8995 86.8906 87.7795 86.9139 87.6586 86.9122C87.5377 86.9105 87.4184 86.8836 87.3084 86.8334C87.1984 86.7832 87.1 86.7107 87.0194 86.6204C86.9389 86.5302 86.878 86.4242 86.8405 86.3092C86.803 86.1943 86.7898 86.0727 86.8018 85.9524C86.8137 85.832 86.8504 85.7155 86.9097 85.6101C86.969 85.5047 87.0496 85.4127 87.1463 85.34C87.243 85.2674 87.3537 85.2156 87.4714 85.1879C88.3355 84.9033 89.2292 84.7186 90.1353 84.6374C91.2506 84.6952 92.3272 85.0657 93.2419 85.7065C93.3337 85.7748 93.4111 85.8606 93.4695 85.959C93.528 86.0573 93.5664 86.1663 93.5825 86.2796C93.5986 86.3928 93.5922 86.5082 93.5635 86.619C93.5349 86.7297 93.4846 86.8337 93.4155 86.925C93.3344 87.0376 93.2271 87.1287 93.1028 87.1904C92.9786 87.2521 92.8411 87.2826 92.7024 87.2792Z" fill="#E76924"/>
<path d="M134.265 88.5044C134.078 88.5021 133.896 88.4402 133.747 88.3276C133.13 87.901 132.408 87.6504 131.66 87.6028C130.952 87.6833 130.255 87.8388 129.58 88.0668C129.469 88.1138 129.349 88.1372 129.228 88.1354C129.107 88.1337 128.988 88.1068 128.878 88.0566C128.768 88.0064 128.669 87.9339 128.589 87.8437C128.508 87.7535 128.447 87.6475 128.41 87.5325C128.372 87.4175 128.359 87.296 128.371 87.1756C128.383 87.0553 128.42 86.9387 128.479 86.8333C128.538 86.7279 128.619 86.6359 128.716 86.5633C128.812 86.4906 128.923 86.4388 129.041 86.4112C129.905 86.1268 130.799 85.942 131.705 85.8606C132.818 85.9184 133.893 86.2896 134.805 86.9316C134.897 86.9995 134.974 87.0848 135.033 87.1828C135.092 87.2807 135.131 87.3894 135.148 87.5024C135.165 87.6155 135.159 87.7308 135.131 87.8416C135.103 87.9524 135.053 88.0566 134.985 88.1482C134.901 88.26 134.793 88.3505 134.668 88.4124C134.543 88.4743 134.405 88.5058 134.265 88.5044Z" fill="#5B9741"/>
<path d="M136.371 106.118C136.207 106.027 136.076 105.884 136 105.711C135.676 105.035 135.174 104.459 134.547 104.046C133.889 103.765 133.204 103.554 132.502 103.416C132.291 103.355 132.111 103.216 131.998 103.027C131.885 102.838 131.847 102.614 131.892 102.399C131.937 102.183 132.062 101.993 132.241 101.865C132.42 101.738 132.641 101.683 132.859 101.711C133.751 101.894 134.619 102.176 135.447 102.553C136.386 103.16 137.136 104.016 137.613 105.027C137.678 105.194 137.691 105.378 137.648 105.552C137.605 105.727 137.51 105.884 137.375 106.003C137.24 106.121 137.071 106.195 136.892 106.214C136.714 106.233 136.533 106.197 136.376 106.11L136.371 106.118Z" fill="#5B9741"/>
<path d="M107.353 83.3511C107.262 83.2966 107.19 83.2149 107.148 83.1176C106.961 82.7283 106.673 82.3971 106.312 82.1594C105.937 81.9918 105.544 81.8673 105.141 81.7882C105.077 81.7745 105.016 81.7485 104.963 81.7114C104.909 81.6744 104.863 81.6271 104.827 81.5724C104.792 81.5176 104.768 81.4563 104.756 81.3921C104.744 81.3279 104.745 81.262 104.758 81.1981C104.772 81.1343 104.798 81.0737 104.835 81.02C104.872 80.9662 104.919 80.9202 104.974 80.8847C105.029 80.8492 105.09 80.8248 105.154 80.813C105.219 80.8012 105.285 80.8021 105.348 80.8157C105.858 80.9186 106.353 81.0803 106.825 81.2975C107.362 81.6394 107.79 82.1277 108.059 82.7049C108.086 82.7644 108.1 82.8286 108.102 82.8937C108.104 82.9589 108.093 83.0238 108.07 83.0847C108.046 83.1456 108.011 83.2013 107.966 83.2485C107.921 83.2958 107.868 83.3338 107.808 83.3602C107.737 83.3946 107.659 83.4116 107.58 83.41C107.501 83.4085 107.423 83.3883 107.353 83.3511Z" fill="#E76924"/>
<path d="M102.058 87.8862C101.967 87.8317 101.895 87.75 101.852 87.6527C101.667 87.2651 101.378 86.9359 101.019 86.701C100.643 86.5335 100.25 86.4089 99.8472 86.3298C99.7273 86.2932 99.6255 86.2129 99.5617 86.105C99.4979 85.997 99.4768 85.8691 99.5025 85.7463C99.5283 85.6236 99.5992 85.5149 99.701 85.4417C99.8028 85.3685 99.9283 85.3361 100.053 85.3508C100.561 85.4565 101.057 85.6181 101.53 85.8326C102.069 86.1753 102.498 86.6662 102.765 87.2466C102.792 87.3066 102.807 87.3713 102.808 87.437C102.81 87.5026 102.798 87.568 102.774 87.6292C102.75 87.6903 102.714 87.7461 102.668 87.7933C102.623 87.8404 102.568 87.878 102.508 87.9038C102.436 87.9361 102.359 87.9513 102.281 87.9483C102.202 87.9452 102.126 87.9239 102.058 87.8862Z" fill="#E76924"/>
<path d="M100.245 81.9005C100.137 81.9024 100.031 81.8682 99.9437 81.8031C99.5934 81.5555 99.1804 81.4115 98.752 81.3877C98.3491 81.4345 97.9521 81.523 97.5674 81.6517C97.5051 81.6701 97.4397 81.6761 97.375 81.6693C97.3103 81.6624 97.2475 81.6429 97.1904 81.6118C97.1332 81.5808 97.0827 81.5387 97.0418 81.4882C97.0009 81.4376 96.9704 81.3794 96.9519 81.3171C96.9335 81.2547 96.9275 81.1893 96.9344 81.1246C96.9412 81.0599 96.9608 80.9972 96.9918 80.94C97.0229 80.8829 97.065 80.8324 97.1156 80.7915C97.1661 80.7506 97.2243 80.7201 97.2867 80.7016C97.7799 80.5382 98.2905 80.433 98.8082 80.3882C99.4454 80.4171 100.061 80.6287 100.581 80.9978C100.666 81.0592 100.73 81.1463 100.763 81.2464C100.796 81.3465 100.795 81.4544 100.763 81.5545C100.73 81.6545 100.666 81.7415 100.58 81.8028C100.495 81.8641 100.392 81.8966 100.287 81.8955L100.245 81.9005Z" fill="#5B9741"/>
<path d="M120.116 81.0929C120.197 81.0246 120.258 80.9346 120.29 80.8333C120.413 80.4204 120.649 80.05 120.971 79.764C121.317 79.5476 121.685 79.3691 122.069 79.2314C122.131 79.2091 122.187 79.1749 122.235 79.1308C122.283 79.0868 122.322 79.0337 122.349 78.9746C122.377 78.9155 122.392 78.8516 122.395 78.7865C122.398 78.7213 122.388 78.6563 122.365 78.5951C122.343 78.5338 122.309 78.4776 122.265 78.4296C122.221 78.3816 122.168 78.3427 122.109 78.3152C122.05 78.2877 121.986 78.2721 121.92 78.2693C121.855 78.2665 121.79 78.2766 121.729 78.2989C121.24 78.4767 120.772 78.7088 120.334 78.991C119.854 79.4118 119.503 79.9608 119.324 80.5737C119.307 80.6705 119.319 80.7701 119.359 80.8598C119.399 80.9496 119.465 81.0255 119.548 81.0778C119.631 81.1301 119.728 81.1565 119.826 81.1537C119.924 81.1509 120.019 81.1189 120.099 81.0619L120.116 81.0929Z" fill="#5156A5"/>
<path d="M114.341 84.4208C114.349 84.314 114.389 84.2121 114.456 84.1287C114.724 83.7917 114.892 83.3867 114.942 82.9591C114.918 82.552 114.852 82.1484 114.744 81.755C114.724 81.6337 114.748 81.509 114.813 81.4045C114.878 81.3001 114.979 81.2231 115.097 81.1882C115.215 81.1534 115.342 81.163 115.453 81.2154C115.564 81.2677 115.653 81.3591 115.701 81.4722C115.831 81.9762 115.906 82.4925 115.927 83.0125C115.852 83.6463 115.602 84.2467 115.205 84.7466C115.163 84.7965 115.112 84.8376 115.053 84.8675C114.995 84.8974 114.932 84.9154 114.867 84.9207C114.802 84.9259 114.736 84.9182 114.674 84.8981C114.612 84.8779 114.554 84.8456 114.505 84.8031C114.452 84.7547 114.41 84.6956 114.382 84.6296C114.353 84.5637 114.34 84.4925 114.341 84.4208Z" fill="#5156A5"/>
<path d="M111.592 80.9434C111.497 80.8925 111.422 80.8108 111.38 80.7119C111.19 80.3244 110.897 79.9966 110.533 79.7641C110.157 79.5983 109.764 79.4738 109.362 79.3929C109.298 79.3803 109.237 79.3551 109.182 79.319C109.128 79.2828 109.081 79.2363 109.045 79.1821C109.009 79.1278 108.983 79.067 108.971 79.003C108.958 78.939 108.958 78.8731 108.97 78.8091C108.983 78.7451 109.008 78.6842 109.044 78.6298C109.08 78.5755 109.127 78.5289 109.181 78.4925C109.235 78.4562 109.296 78.4309 109.36 78.418C109.424 78.4052 109.49 78.4051 109.554 78.4178C110.063 78.5158 110.56 78.6724 111.033 78.8844C111.573 79.2229 112.007 79.7063 112.285 80.2793C112.313 80.3391 112.328 80.4037 112.331 80.4695C112.333 80.5353 112.323 80.601 112.3 80.6626C112.276 80.7242 112.241 80.7806 112.196 80.8285C112.151 80.8763 112.096 80.9146 112.036 80.9412C111.967 80.9751 111.891 80.9929 111.814 80.9933C111.737 80.9937 111.661 80.9766 111.592 80.9434Z" fill="#8E542D"/>
<path d="M126.694 82.7429C126.814 82.6921 126.914 82.6019 126.977 82.487C127.253 82.0441 127.641 81.6819 128.101 81.4373C128.576 81.2977 129.065 81.2087 129.558 81.1718C129.64 81.1697 129.722 81.1508 129.796 81.1163C129.871 81.0819 129.938 81.0325 129.993 80.9713C130.048 80.91 130.09 80.8382 130.116 80.7602C130.143 80.6822 130.153 80.5996 130.146 80.5175C130.14 80.4354 130.116 80.3556 130.078 80.2828C130.039 80.2101 129.986 80.146 129.922 80.0944C129.858 80.0429 129.784 80.005 129.704 79.983C129.625 79.9611 129.542 79.9555 129.46 79.9667C128.83 80.0204 128.207 80.1443 127.604 80.3361C126.902 80.6718 126.312 81.2024 125.903 81.8645C125.865 81.934 125.841 82.0104 125.832 82.0893C125.823 82.1682 125.83 82.2481 125.853 82.3242C125.875 82.4004 125.913 82.4713 125.963 82.5328C126.013 82.5943 126.075 82.6453 126.145 82.6827C126.225 82.7355 126.317 82.7685 126.412 82.7789C126.508 82.7894 126.604 82.777 126.694 82.7429Z" fill="#8E542D"/>
<path d="M100.998 107.627C101.129 107.492 101.213 107.318 101.239 107.132C101.359 106.39 101.683 105.695 102.175 105.127C102.733 104.672 103.338 104.279 103.98 103.955C104.184 103.847 104.337 103.662 104.405 103.442C104.473 103.221 104.451 102.982 104.343 102.778C104.235 102.574 104.051 102.422 103.83 102.354C103.609 102.286 103.371 102.308 103.167 102.416C102.363 102.837 101.609 103.349 100.92 103.941C100.183 104.777 99.6982 105.806 99.5228 106.908C99.5073 107.021 99.5144 107.137 99.5438 107.248C99.5731 107.359 99.624 107.464 99.6937 107.555C99.7633 107.646 99.8503 107.723 99.9497 107.781C100.049 107.838 100.159 107.876 100.273 107.891C100.406 107.904 100.54 107.886 100.665 107.841C100.79 107.795 100.904 107.722 100.998 107.627Z" fill="#8E542D"/>
<path d="M80.3976 97.8317C80.5764 97.7747 80.7317 97.6608 80.8397 97.5073C81.2945 96.9125 81.9026 96.4525 82.5987 96.1768C83.2884 96.0367 83.9914 95.9733 84.695 95.9877C84.9163 95.9731 85.1237 95.875 85.2753 95.7133C85.4269 95.5515 85.5113 95.3381 85.5115 95.1164C85.5116 94.8947 85.4275 94.6812 85.2761 94.5192C85.1247 94.3572 84.9174 94.2589 84.6962 94.244C83.787 94.2423 82.8804 94.3418 81.9932 94.5407C80.9499 94.9375 80.0403 95.6217 79.3697 96.5141C79.2613 96.6626 79.2029 96.8418 79.203 97.0256C79.2031 97.2095 79.2616 97.3885 79.3702 97.5369C79.4787 97.6853 79.6317 97.7953 79.8068 97.8511C79.982 97.9069 80.1704 97.9056 80.3447 97.8473L80.3976 97.8317Z" fill="#5B9741"/>
<path d="M143.485 92.15C143.298 92.1489 143.115 92.0901 142.962 91.9818C142.345 91.5524 141.623 91.2995 140.873 91.2504C140.163 91.3313 139.464 91.4875 138.787 91.7163C138.574 91.7652 138.35 91.7323 138.16 91.6241C137.97 91.516 137.827 91.3404 137.76 91.1321C137.693 90.9238 137.707 90.6979 137.798 90.4992C137.89 90.3004 138.052 90.1433 138.254 90.0587C139.119 89.778 140.013 89.5933 140.918 89.5082C142.033 89.5668 143.109 89.9404 144.02 90.5858C144.177 90.6907 144.295 90.8439 144.357 91.0221C144.419 91.2003 144.421 91.3939 144.363 91.5733C144.304 91.7528 144.189 91.9084 144.035 92.0165C143.88 92.1246 143.695 92.1794 143.506 92.1725L143.485 92.15Z" fill="#5B9741"/>
<path d="M95.272 102.697C95.1125 102.793 94.9264 102.835 94.741 102.818C93.9903 102.766 93.2396 102.919 92.5686 103.259C91.9972 103.688 91.4757 104.179 91.014 104.723C90.856 104.874 90.6472 104.96 90.4287 104.965C90.2103 104.97 89.9981 104.892 89.834 104.748C89.6698 104.604 89.5656 104.403 89.5419 104.186C89.5182 103.969 89.5768 103.751 89.706 103.575C90.3018 102.888 90.9745 102.273 91.7108 101.741C92.6982 101.218 93.8134 100.986 94.9274 101.07C95.1575 101.096 95.3681 101.211 95.5139 101.391C95.6597 101.57 95.7289 101.8 95.7064 102.031C95.693 102.169 95.6465 102.301 95.5709 102.417C95.4952 102.533 95.3927 102.629 95.272 102.697Z" fill="#5B9741"/>
<path d="M135.477 83.9136C135.345 83.9121 135.217 83.8697 135.111 83.7922C134.68 83.4895 134.173 83.3137 133.648 83.2847C133.151 83.3407 132.661 83.4493 132.187 83.6088C132.108 83.6418 132.022 83.6576 131.936 83.6554C131.851 83.6532 131.766 83.633 131.689 83.596C131.611 83.559 131.542 83.5062 131.487 83.4408C131.431 83.3755 131.389 83.2992 131.365 83.2169C131.341 83.1345 131.334 83.0479 131.345 82.9628C131.357 82.8777 131.386 82.7959 131.431 82.7227C131.476 82.6496 131.535 82.5867 131.606 82.5381C131.677 82.4896 131.757 82.4565 131.842 82.441C132.445 82.2427 133.069 82.1137 133.701 82.0566C134.481 82.0986 135.234 82.3583 135.874 82.8062C135.983 82.8828 136.064 82.9929 136.105 83.1197C136.145 83.2466 136.144 83.3833 136.1 83.5091C136.056 83.6348 135.972 83.7428 135.861 83.8167C135.75 83.8905 135.618 83.9262 135.485 83.9182L135.477 83.9136Z" fill="#E76924"/>
<path d="M141.922 86.4712C141.79 86.4727 141.661 86.4299 141.556 86.3498C141.121 86.0549 140.617 85.8799 140.093 85.8423C139.597 85.8939 139.11 86.002 138.639 86.1645C138.559 86.1974 138.474 86.2133 138.388 86.2111C138.302 86.2089 138.218 86.1886 138.14 86.1516C138.063 86.1147 137.994 86.0618 137.938 85.9965C137.882 85.9312 137.841 85.8549 137.817 85.7725C137.792 85.6902 137.786 85.6036 137.797 85.5185C137.808 85.4334 137.837 85.3515 137.882 85.2784C137.927 85.2052 137.987 85.1423 138.058 85.0938C138.129 85.0453 138.209 85.0122 138.294 84.9967C138.897 84.7986 139.52 84.6696 140.153 84.6122C140.933 84.6539 141.686 84.9136 142.326 85.3618C142.454 85.4591 142.54 85.6033 142.563 85.7631C142.586 85.9229 142.545 86.0853 142.449 86.215C142.39 86.2988 142.31 86.3663 142.218 86.4111C142.126 86.4559 142.024 86.4766 141.922 86.4712Z" fill="#5156A5"/>
<path d="M93.642 98.7598C93.8228 98.7067 93.9793 98.592 94.0842 98.4354C94.5444 97.8461 95.1508 97.3874 95.8432 97.1049C96.5333 96.9681 97.236 96.9047 97.9395 96.9158C98.0536 96.9162 98.1667 96.8941 98.2722 96.8507C98.3778 96.8073 98.4738 96.7435 98.5546 96.663C98.6354 96.5824 98.6995 96.4868 98.7433 96.3814C98.787 96.276 98.8096 96.163 98.8096 96.0488C98.8103 95.8174 98.7193 95.5952 98.5564 95.4308C98.3935 95.2665 98.1721 95.1734 97.9407 95.1721C97.0315 95.1704 96.1249 95.2699 95.2377 95.4688C94.1952 95.8673 93.2861 96.5512 92.6141 97.4422C92.5474 97.5355 92.4998 97.6411 92.4741 97.7529C92.4484 97.8646 92.4452 97.9804 92.4646 98.0935C92.484 98.2065 92.5257 98.3146 92.5871 98.4114C92.6486 98.5082 92.7286 98.5919 92.8227 98.6576C92.9392 98.7432 93.0756 98.7975 93.219 98.8154C93.3624 98.8333 93.5081 98.8141 93.642 98.7598Z" fill="#5156A5"/>
<path d="M141.889 100.004C142.077 100.009 142.262 99.9543 142.417 99.8477C143.034 99.4209 143.754 99.1662 144.502 99.1096C145.209 99.1859 145.906 99.3383 146.58 99.5643C146.796 99.6181 147.024 99.5877 147.218 99.4793C147.412 99.3709 147.557 99.1927 147.625 98.9808C147.692 98.7689 147.676 98.5394 147.58 98.3389C147.484 98.1385 147.315 97.9822 147.108 97.9019C146.243 97.626 145.35 97.4471 144.446 97.3684C143.33 97.4286 142.255 97.8062 141.346 98.4569C141.202 98.5679 141.096 98.7211 141.043 98.8952C140.99 99.0693 140.993 99.2555 141.051 99.4279C141.109 99.6003 141.22 99.7503 141.367 99.857C141.514 99.9636 141.691 100.022 141.873 100.023L141.889 100.004Z" fill="#8E542D"/>
<path d="M124.729 108.404C124.596 108.273 124.51 108.102 124.485 107.917C124.356 107.176 124.028 106.484 123.535 105.916C122.985 105.467 122.389 105.078 121.757 104.756C121.571 104.639 121.436 104.456 121.379 104.244C121.322 104.032 121.346 103.806 121.448 103.612C121.549 103.417 121.721 103.268 121.927 103.194C122.134 103.119 122.361 103.126 122.563 103.212C123.366 103.624 124.122 104.122 124.817 104.698C125.557 105.532 126.045 106.56 126.224 107.661C126.25 107.842 126.218 108.026 126.133 108.188C126.048 108.35 125.914 108.481 125.75 108.562C125.587 108.643 125.401 108.67 125.221 108.639C125.041 108.609 124.875 108.522 124.747 108.391L124.729 108.404Z" fill="#8E542D"/>
<path d="M134.272 97.6062C134.094 97.5493 133.937 97.4372 133.826 97.2861C133.366 96.6924 132.755 96.2337 132.056 95.9582C131.356 95.8199 130.643 95.7588 129.929 95.7762C129.809 95.7864 129.688 95.7715 129.574 95.7326C129.459 95.6936 129.354 95.6314 129.265 95.5498C129.176 95.4683 129.105 95.3692 129.056 95.2588C129.008 95.1483 128.982 95.029 128.982 94.9083C128.981 94.7875 129.006 94.6681 129.054 94.5573C129.102 94.4466 129.173 94.3471 129.261 94.265C129.35 94.1829 129.454 94.12 129.569 94.0803C129.683 94.0407 129.804 94.0251 129.924 94.0345C130.832 94.0261 131.738 94.1193 132.625 94.3124C133.671 94.7033 134.583 95.3841 135.256 96.2751C135.323 96.3674 135.372 96.472 135.398 96.5829C135.425 96.6939 135.429 96.809 135.411 96.9216C135.393 97.0342 135.353 97.1422 135.293 97.2393C135.233 97.3364 135.155 97.4207 135.062 97.4875C134.949 97.5681 134.819 97.6209 134.682 97.6416C134.544 97.6622 134.404 97.6501 134.272 97.6062Z" fill="#E76924"/>
<path d="M116.023 107.225C115.86 107.132 115.732 106.989 115.658 106.816C115.332 106.141 114.83 105.565 114.205 105.151C113.551 104.867 112.867 104.655 112.167 104.519C112.048 104.504 111.933 104.464 111.83 104.402C111.726 104.34 111.637 104.257 111.567 104.159C111.497 104.061 111.449 103.949 111.424 103.831C111.399 103.713 111.399 103.592 111.424 103.474C111.449 103.356 111.498 103.244 111.567 103.146C111.637 103.048 111.727 102.965 111.83 102.904C111.933 102.842 112.048 102.802 112.168 102.786C112.287 102.771 112.408 102.78 112.524 102.814C113.413 102.997 114.279 103.281 115.105 103.658C116.044 104.261 116.794 105.116 117.269 106.125C117.334 106.292 117.347 106.476 117.304 106.651C117.262 106.825 117.166 106.982 117.031 107.101C116.896 107.219 116.727 107.293 116.548 107.312C116.37 107.331 116.19 107.295 116.032 107.208L116.023 107.225Z" fill="#5156A5"/>
</svg>
