<svg width="180" height="180" viewBox="0 0 180 180" fill="none" xmlns="http://www.w3.org/2000/svg">
<path d="M15.0537 102.36C17.2537 108.69 81.0537 136.08 89.8637 136.08C98.6737 136.08 164.664 110.79 164.664 102.36C164.664 93.93 104.154 74.16 91.5037 74.16C78.8537 74.16 12.8537 96 15.0537 102.36Z" fill="#A2BBBC"/>
<path d="M164.664 97.84H15.0038V102.37H164.664V97.84Z" fill="#A2BBBC"/>
<path d="M15.0537 98.69C17.2537 105.01 81.0537 132.41 89.8637 132.41C98.6737 132.41 164.664 107.12 164.664 98.69C164.664 90.26 104.154 70.48 91.5037 70.48C78.8537 70.48 12.8537 92.37 15.0537 98.69Z" fill="#B7CCCE"/>
<path d="M45.1438 100C46.4838 103.4 85.2938 118.11 90.6538 118.11C96.0138 118.11 136.154 104.53 136.154 100C136.154 95.47 99.3438 84.82 91.6538 84.82C83.9638 84.82 43.8038 96.57 45.1438 100Z" fill="#ABC2C4"/>
<path d="M127.714 97.29C124.194 101.55 91.3538 114.48 91.3538 114.48V73.88C91.3538 73.88 125.844 56.51 130.294 58.28C134.744 60.05 131.224 93 127.714 97.29Z" fill="#FFEFD2"/>
<path d="M91.3537 114.32C87.8337 116.44 55.1837 101.67 52.6237 98C52.2137 97.41 51.4837 51.05 51.4837 59L91.3537 75.05C91.3537 75.05 94.8737 112.19 91.3537 114.32Z" fill="#FFEFD2"/>
<path d="M51.4837 59C52.6537 62.37 86.6637 77 91.3537 77C96.0437 77 131.224 63.52 131.224 59C131.224 54.48 99.0037 44 92.2337 44C85.4637 44 50.3037 55.67 51.4837 59Z" fill="#47250C"/>
<path d="M91.3238 91.11C91.5038 93.77 93.8437 94.44 99.9537 92.49C104.274 91.11 105.954 88.25 105.714 85.59C105.474 82.93 102.834 82.84 98.5138 84.22C93.6138 85.78 91.1338 88.45 91.3238 91.11Z" fill="#6B3B1B"/>
<path d="M92.7238 90.66C92.8738 92.81 94.7838 93.35 99.7238 91.77C103.234 90.66 104.554 88.34 104.404 86.19C104.254 84.04 102.074 84 98.5738 85.07C94.5938 86.34 92.5738 88.5 92.7238 90.66Z" fill="#AF846D"/>
<path d="M106.104 85.14C106.484 87.62 108.734 88.14 114.314 85.84C118.314 84.25 119.574 81.46 119.204 78.97C118.834 76.48 116.294 76.59 112.344 78.18C107.864 80 105.734 82.65 106.104 85.14Z" fill="#6B3B1B"/>
<path d="M107.394 84.62C107.694 86.62 109.524 87 114.054 85.18C117.264 83.89 118.324 81.63 118.054 79.62C117.784 77.61 115.694 77.69 112.494 78.98C108.824 80.44 107.094 82.61 107.394 84.62Z" fill="#AF846D"/>
<path d="M119.504 79.25C119.654 81.42 121.564 81.97 126.504 80.38C130.024 79.25 131.354 76.93 131.194 74.76C131.034 72.59 128.854 72.51 125.334 73.64C121.374 74.91 119.354 77.09 119.504 79.25Z" fill="#6B3B1B"/>
<path d="M120.644 78.89C120.774 80.64 122.324 81.08 126.364 79.8C129.214 78.89 130.294 77 130.164 75.25C130.034 73.5 128.264 73.43 125.404 74.34C122.164 75.37 120.524 77.13 120.644 78.89Z" fill="#AF846D"/>
<path d="M91.7037 109.55C92.0037 111.83 94.2337 112.31 99.8837 110.38C103.884 109.01 105.274 106.48 104.974 104.2C104.674 101.92 102.144 101.94 98.1538 103.31C93.6138 104.86 91.4037 107.27 91.7037 109.55Z" fill="#6B3B1B"/>
<path d="M93.0037 109.1C93.2437 110.95 95.0637 111.34 99.6437 109.77C102.894 108.67 104.024 106.62 103.784 104.77C103.544 102.92 101.484 102.94 98.2437 104.05C94.5537 105.3 92.7637 107.25 93.0037 109.1Z" fill="#AF846D"/>
<path d="M105.324 103.79C105.794 105.91 107.924 106.22 113.074 104.05C116.714 102.52 117.814 100.05 117.344 97.93C116.874 95.81 114.504 95.99 110.864 97.53C106.734 99.27 104.864 101.66 105.324 103.79Z" fill="#6B3B1B"/>
<path d="M106.514 103.29C106.894 105.01 108.624 105.29 112.804 103.5C115.804 102.25 116.654 100.26 116.274 98.5C115.894 96.74 114.004 97 111.004 98.21C107.664 99.63 106.134 101.57 106.514 103.29Z" fill="#AF846D"/>
<path d="M117.644 98.16C117.884 100.02 119.704 100.41 124.304 98.84C127.564 97.72 128.704 95.66 128.454 93.84C128.204 92.02 126.144 92 122.894 93.12C119.204 94.34 117.404 96.3 117.644 98.16Z" fill="#6B3B1B"/>
<path d="M118.704 97.8C118.904 99.3 120.374 99.62 124.114 98.34C126.754 97.44 127.684 95.77 127.484 94.26C127.284 92.75 125.614 92.77 122.964 93.68C120.004 94.7 118.504 96.29 118.704 97.8Z" fill="#AF846D"/>
<path d="M51.8138 77.16L51.9137 79.48C54.0137 80.68 65.1637 84.69 67.9137 85.99C72.6138 88.24 93.5738 93.37 94.2338 93.61C94.8938 93.85 91.3737 91.61 92.0737 89C92.0737 89 84.3337 90.49 80.8237 88.24C77.3137 85.99 68.0037 85.08 63.2038 82.62C59.1038 80.54 51.8138 77.16 51.8138 77.16Z" fill="#6B3B1B"/>
<path d="M52.6237 94.64L52.7238 96.83C54.8138 97.97 64.1237 104.02 67.8937 104.83C73.0037 105.91 93.1338 111.33 93.7938 111.57C94.4538 111.81 91.3538 110.15 92.0538 107.68C92.0538 107.68 84.7038 108.43 80.8038 106.96C76.5638 105.35 68.0038 104 63.2038 101.62C59.1038 99.65 52.6237 94.64 52.6237 94.64Z" fill="#6B3B1B"/>
<path d="M104.834 83.82C104.834 83.82 106.464 83.67 106.834 82.91C107.204 82.15 106.004 86.77 107.364 87C108.724 87.23 105.914 88 105.004 88.52C104.094 89.04 106.004 84.52 104.834 83.82Z" fill="#6B3B1B"/>
<path d="M118.254 77.38C118.97 77.3723 119.681 77.2577 120.364 77.04C120.944 76.74 119.294 79.14 120.894 80.54C119.84 80.939 118.923 81.6334 118.254 82.54C118.254 82.54 119.454 78.79 118.254 77.38Z" fill="#6B3B1B"/>
<path d="M116.304 96.71C117.016 96.6973 117.722 96.5862 118.404 96.38C118.994 96.1 117.344 98.38 118.934 99.7C117.895 100.077 116.984 100.739 116.304 101.61C116.304 101.61 117.504 98 116.304 96.71Z" fill="#6B3B1B"/>
<path d="M103.814 103.1C103.814 103.1 105.454 102.39 106.044 102.1C106.634 101.81 105.764 103.99 107.364 105.32C106.226 105.542 105.193 106.132 104.424 107C104.424 107 105.004 104.44 103.814 103.1Z" fill="#6B3B1B"/>
<path d="M130.584 73.76L132.384 71.76L132.074 76.76L130.174 77.41C130.174 77.41 131.004 74.76 130.584 73.76Z" fill="#6B3B1B"/>
<path d="M128.084 93.6L129.884 91.74L128.774 95.66L127.674 96.66C127.674 96.66 128.454 94.55 128.084 93.6Z" fill="#6B3B1B"/>
<path d="M99.2737 55.47C99.6037 56.21 96.9537 58.13 95.2737 58.88C94.8211 59.1017 94.3139 59.1875 93.8134 59.1272C93.313 59.0669 92.8408 58.8629 92.4537 58.54C92.4675 58.0361 92.6268 57.5471 92.9126 57.1318C93.1983 56.7166 93.5981 56.3929 94.0637 56.2C95.7437 55.45 98.9337 54.73 99.2737 55.47Z" fill="#376619"/>
<path d="M95.3038 53.67C95.9538 54.16 95.1038 56.36 94.3038 57.38C94.0245 57.6703 93.6642 57.8695 93.2698 57.9516C92.8755 58.0337 92.4656 57.9948 92.0937 57.84C91.8546 57.5174 91.7181 57.1302 91.702 56.7289C91.686 56.3276 91.7911 55.9307 92.0038 55.59C92.7638 54.57 94.6638 53.18 95.3038 53.67Z" fill="#376619"/>
<path d="M95.2638 56.89C95.3838 59.21 94.0938 59.55 91.9338 59.66C89.7738 59.77 87.5437 59.66 87.4237 57.3C87.3037 54.94 88.9037 52 91.0737 51.87C93.2437 51.74 95.1438 54.56 95.2638 56.89Z" fill="#E04820"/>
<path d="M87.3938 60.1C85.6638 60.18 84.5938 57.02 84.5938 57.02C84.5938 57.02 87.0138 56.02 88.4438 57.02C89.8738 58.02 92.8938 59.23 91.8738 59.79C91.0038 60.21 89.2638 60 87.3938 60.1Z" fill="#376619"/>
</svg>
